<svg class="main-svg" xmlns="http://www.w3.org/2000/svg" xmlns:xlink="http://www.w3.org/1999/xlink" width="700" height="450" style="" viewBox="0 0 700 450"><rect x="0" y="0" width="700" height="450" style="fill: rgb(255, 255, 255); fill-opacity: 1;"/><defs id="defs-ede892"><g class="clips"><clipPath id="clipede892xyplot" class="plotclip"><rect width="580" height="330"/></clipPath><clipPath class="axesclip" id="clipede892x"><rect x="60" y="0" width="580" height="450"/></clipPath><clipPath class="axesclip" id="clipede892y"><rect x="0" y="60" width="700" height="330"/></clipPath><clipPath class="axesclip" id="clipede892xy"><rect x="60" y="60" width="580" height="330"/></clipPath></g><g class="gradients"/></defs><g class="bglayer"/><g class="layer-below"><g class="imagelayer"/><g class="shapelayer"/></g><g class="cartesianlayer"><g class="subplot xy"><g class="layer-subplot"><g class="shapelayer"/><g class="imagelayer"/></g><g class="gridlayer"><g class="x"><path class="xgrid crisp" transform="translate(163.35,0)" d="M0,60v330" style="stroke: rgb(238, 238, 238); stroke-opacity: 1; stroke-width: 1px;"/><path class="xgrid crisp" transform="translate(266.7,0)" d="M0,60v330" style="stroke: rgb(238, 238, 238); stroke-opacity: 1; stroke-width: 1px;"/><path class="xgrid crisp" transform="translate(370.05,0)" d="M0,60v330" style="stroke: rgb(238, 238, 238); stroke-opacity: 1; stroke-width: 1px;"/><path class="xgrid crisp" transform="translate(473.4,0)" d="M0,60v330" style="stroke: rgb(238, 238, 238); stroke-opacity: 1; stroke-width: 1px;"/><path class="xgrid crisp" transform="translate(576.75,0)" d="M0,60v330" style="stroke: rgb(238, 238, 238); stroke-opacity: 1; stroke-width: 1px;"/></g><g class="y"><path class="ygrid crisp" transform="translate(0,325.15)" d="M60,0h580" style="stroke: rgb(238, 238, 238); stroke-opacity: 1; stroke-width: 1px;"/><path class="ygrid crisp" transform="translate(0,276.81)" d="M60,0h580" style="stroke: rgb(238, 238, 238); stroke-opacity: 1; stroke-width: 1px;"/><path class="ygrid crisp" transform="translate(0,228.46)" d="M60,0h580" style="stroke: rgb(238, 238, 238); stroke-opacity: 1; stroke-width: 1px;"/><path class="ygrid crisp" transform="translate(0,180.11)" d="M60,0h580" style="stroke: rgb(238, 238, 238); stroke-opacity: 1; stroke-width: 1px;"/><path class="ygrid crisp" transform="translate(0,131.76)" d="M60,0h580" style="stroke: rgb(238, 238, 238); stroke-opacity: 1; stroke-width: 1px;"/><path class="ygrid crisp" transform="translate(0,83.42)" d="M60,0h580" style="stroke: rgb(238, 238, 238); stroke-opacity: 1; stroke-width: 1px;"/></g></g><g class="zerolinelayer"><path class="xzl zl crisp" transform="translate(60,0)" d="M0,60v330" style="stroke: rgb(68, 68, 68); stroke-opacity: 1; stroke-width: 1px;"/><path class="yzl zl crisp" transform="translate(0,373.5)" d="M60,0h580" style="stroke: rgb(68, 68, 68); stroke-opacity: 1; stroke-width: 1px;"/></g><path class="xlines-below"/><path class="ylines-below"/><g class="overlines-below"/><g class="xaxislayer-below"/><g class="yaxislayer-below"/><g class="overaxes-below"/><g class="plot" transform="translate(60, 60)" clip-path="url(#clipede892xyplot)"><g class="scatterlayer mlayer"><g class="trace scatter trace7242df" style="stroke-miterlimit: 2; opacity: 1;"><g class="fills"/><g class="errorbars"/><g class="lines"><path class="js-line" style="vector-effect: non-scaling-stroke; fill: none; stroke: rgb(31, 119, 180); stroke-opacity: 1; stroke-width: 2px; opacity: 1;" d="M0,313.5L1.45,46.06L1.55,46.68L1.65,43.5L1.96,42.2L2.38,76.4L2.69,65.76L2.79,59.4L2.89,74.5L3.31,50.17L3.41,51.13L3.51,46.3L3.82,42.47L4.34,63.97L4.44,60.49L4.55,47.19L5.27,26.87L5.37,38.95L5.48,53.23L5.79,50.99L6.3,69.94L6.41,61.14L7.23,48.54L7.34,59.51L7.96,120.24L8.27,111.45L8.37,96.37L8.47,95.71L8.58,78.48L8.68,78.73L8.78,75.29L9.82,24.99L9.92,44.29L10.75,77.22L10.85,65.33L10.96,61.47L11.06,59.12L11.16,67.19L11.27,72.12L11.37,71.88L11.47,81.61L12.51,16.5L12.71,21.97L12.82,33.85L12.92,34.21L13.02,42.07L13.13,27.81L13.54,53.04L13.64,49.36L13.75,49.96L13.95,52.59L14.06,67.7L14.26,60.85L14.37,82.44L14.57,77.5L14.68,57.27L14.78,61.43L14.99,44.28L15.09,39.81L15.19,42.02L15.3,31.72L15.4,22.44L16.02,90.49L16.33,76.23L16.43,65.18L16.64,67.82L16.74,61.42L16.95,65.56L17.05,77.34L17.16,99.1L17.78,75.34L17.88,54.44L18.09,47.82L18.6,52.15L18.71,57.77L18.91,85.29L19.43,64.61L19.53,69.72L20.05,71.99L20.36,41.24L20.57,46.62L20.67,48.55L20.88,38.11L21.19,57.5L21.29,78.91L21.5,75.27L21.6,77.51L21.7,85.43L21.91,92.78L22.22,82.65L22.32,72.42L22.43,71.14L22.53,75.93L22.63,78.15L22.74,77.97L22.84,79.94L23.67,104.01L23.87,100.09L23.98,90.68L24.8,111.42L24.91,121.81L25.01,117.02L25.42,131.11L25.53,138.28L26.25,104.66L26.56,108.43L26.66,109.58L27.49,130.69L27.59,120.3L27.8,114.47L27.9,114.52L28.01,122.35L28.42,93.59L28.94,99.8L29.04,104.68L29.14,93.89L29.56,124.64L29.66,128.19L29.76,129.08L29.97,124.59L30.07,135.49L30.18,142.69L30.49,123.6L30.8,135.16L30.9,137.23L31.42,156.13L31.83,150.33L31.94,140.58L32.04,144.42L32.25,129.4L32.35,113.09L32.45,116.05L32.56,106.89L32.66,95.52L32.97,92.84L33.28,109.39L33.38,93.26L34.31,122.11L34.42,98.74L34.52,84.34L34.93,99.73L35.24,87.33L35.35,108.91L36.48,142.21L36.59,141.47L36.79,140.18L37.31,150.95L37.41,148.54L37.52,146.83L37.62,144.81L37.83,154.72L38.03,147.58L38.14,157.82L39.17,129.09L39.27,131.85L39.38,130.01L40.2,144.29L40.41,139.87L40.51,135.27L41.03,121.29L41.34,128.33L41.44,133.17L42.37,157.93L42.48,154.3L42.58,152.08L42.68,165.13L42.79,166.24L42.89,165.17L42.99,155.47L43.2,158.5L43.72,149.5L43.82,155.25L44.03,166.43L44.44,153.61L44.54,141.23L44.75,141L45.06,146.58L45.16,142.35L45.27,133.06L46.2,162.66L46.3,161.83L46.4,158.47L46.51,161.95L46.71,146.94L46.82,151.37L46.92,150.93L47.02,149.84L47.13,135.08L47.23,128.36L47.54,142.31L47.64,152.5L47.75,151.33L47.95,156.67L48.06,160.3L48.57,170.05L48.78,161.69L48.88,158.38L48.99,169.7L49.61,165.33L49.71,160.28L50.12,179.82L50.33,163.66L50.43,154.82L50.54,155.18L50.64,160.82L50.85,161.66L50.95,147.51L51.26,142.14L51.36,148.6L51.47,147.94L51.57,148.36L51.78,140.87L51.88,153.25L51.99,152.55L52.09,159.32L52.3,164.07L52.4,151.34L52.5,154.14L52.61,152.21L53.23,130.42L53.43,140.82L53.54,142.59L54.16,154.88L54.36,154.35L54.47,150.67L55.4,179.32L55.5,177.46L55.6,177.27L55.91,179L56.02,171.07L56.33,176.22L56.43,177.8L56.74,151.14L57.36,157.52L57.46,169.48L57.77,202.77L58.39,197.3L58.5,198.33L59.01,201.61L59.94,156.9L60.05,167.28L60.15,163.41L60.25,170.61L60.56,167.06L60.67,175.17L60.98,168.36L61.18,171.26L61.29,180.55L61.7,177.2L61.8,189.3L62.11,184.69L62.22,182.14L62.42,169.07L62.94,175.25L63.04,177.25L63.35,182.53L63.77,168.35L63.87,171.34L63.97,167.43L64.28,164.6L64.39,171.84L64.7,168.74L64.8,163.2L65.94,193.78L66.04,190.12L66.87,172.9L66.97,179.99L67.38,192.49L67.69,187.17L67.8,182.32L68,184.29L68.52,172.45L68.62,175.26L68.73,177.06L69.14,177.61L69.35,158.88L69.66,163.39L69.76,172.19L70.07,164.42L70.28,181.05L70.38,180.94L70.48,180.51L70.69,178.5L70.79,180.57L70.9,171.62L71.1,177.24L71.41,165.46L71.72,167.97L71.83,177.32L72.14,181.18L72.24,173.75L72.34,172.07L72.86,171.55L73.17,188.07L73.28,185.99L73.38,184.07L74.1,167.61L74.31,169.49L74.41,176.42L74.72,179.5L75.14,178.4L75.24,187.3L75.34,186.19L75.55,191.82L75.65,193.41L76.38,213.71L76.58,208.81L76.69,207.21L77.72,177.69L77.82,189.33L78.55,180.55L78.65,183.33L78.75,187.58L78.96,201.8L79.48,196.93L79.58,188.82L79.79,178.39L80.1,190.32L80.3,188.38L80.41,184.74L80.61,198.86L81.03,184.2L81.23,191.88L81.34,194.41L81.54,182.79L81.75,195.7L81.85,189.59L81.96,195.08L82.58,195.78L82.68,188.52L82.78,194.74L82.99,196.56L83.2,187.13L83.51,193.53L83.61,199.96L83.71,201.04L83.82,192.11L83.92,191.46L84.02,192.28L84.13,197.08L84.23,199.44L84.44,187.68L84.54,189.62L84.64,184.51L85.68,214.81L85.78,205.8L86.61,188.5L86.71,198L86.81,201.95L86.92,199.58L87.23,207.28L87.33,203.16L87.43,209.17L87.64,202.06L87.74,193.94L87.85,196.51L88.05,192.55L88.16,182.13L88.26,179.9L88.57,188.36L88.67,187.52L89.19,188.79L89.6,160.9L89.71,165.16L89.91,159.03L90.22,168.1L90.33,176.71L90.43,168.11L90.74,182.76L90.84,182.52L90.95,188.4L91.26,186.25L91.36,203.89L91.67,208.52L91.88,203.28L92.08,204.38L92.19,188.22L92.6,178.87L92.7,189.32L92.81,189.56L92.91,180.22L93.01,176.45L93.22,189.1L93.33,194.35L93.53,200.26L93.95,192.6L94.05,196L94.15,193.24L94.46,188.51L94.67,190.07L94.77,197.68L94.98,203.73L95.39,196.21L95.5,196.73L96.53,165.17L96.74,171.71L96.84,178.88L97.87,207.97L97.98,203.91L98.08,196.32L98.18,194.93L98.29,199.14L98.39,195.91L98.49,203.17L99.22,190.66L99.32,198.71L99.42,198.98L99.53,195.19L99.73,195.92L100.56,182.33L100.66,182.27L101.28,177.26L101.49,188.26L101.59,186.56L101.9,194.91L102.01,199L102.52,207.11L102.73,199.58L102.83,198.44L103.25,188.99L103.56,194.94L103.66,195.77L103.76,194.52L103.97,196.99L104.07,205.59L104.8,219.4L104.9,215.15L105,210.59L105.31,211.82L105.42,204.56L105.73,208.36L105.83,212.14L105.93,211.49L106.04,205.73L106.14,205.86L106.24,201.39L106.35,207.4L106.66,189.28L106.76,187.68L106.86,186.07L107.07,190.72L107.17,194.6L107.28,187.69L107.69,198.49L107.79,205.12L107.9,199.1L108.31,211.67L108.41,207.98L108.52,208.97L109.24,178.69L109.45,186.39L109.55,194.2L109.65,191.61L109.86,205.3L109.96,210.91L110.27,205.78L110.58,214.05L110.69,214.52L111,217.28L111.1,213.03L112.13,223.47L112.24,215.39L112.44,222.76L112.96,219.51L113.06,215.78L113.48,221.16L113.68,212.36L113.79,213.21L113.89,208.45L114.51,213.93L114.62,219.37L114.72,222.61L115.13,212.9L115.24,211.85L115.44,210.42L115.55,203.61L116.89,184.56L116.99,190.51L117.1,184.11L117.51,200.09L117.61,202.29L118.13,216.27L118.23,209.25L118.34,200.51L118.44,201.12L118.54,199.85L118.65,197.02L118.85,191.89L119.27,199.71L119.37,200.48L119.68,196.29L120.2,204.85L120.3,204.15L120.4,200.09L120.61,209.73L121.02,205.2L121.13,202.62L121.23,202.92L121.33,202.12L121.44,207.85L121.54,206.34L121.64,215.49L121.75,218.74L121.95,218.7L122.26,225.43L122.37,218.84L122.47,217.52L123.19,196.05L123.3,202.96L123.4,208.09L123.61,206.17L123.81,211.78L123.92,214.54L124.12,215.62L124.23,205.06L124.33,195.31L124.54,199.81L124.85,199.12L124.95,194.61L125.26,201.49L125.57,197.57L125.67,190.01L125.78,189.61L125.88,193.86L125.98,194.07L126.09,199.3L126.81,219.62L127.02,213.68L127.12,209.53L127.43,204.84L127.74,206.12L127.84,209.15L127.95,215.95L128.46,206.58L128.57,203.01L128.88,188.58L129.19,203.44L129.39,196.52L129.5,202.39L130.74,224.97L130.84,219.68L131.77,179.67L131.87,186.29L131.98,187.33L132.39,191.84L132.49,199.13L133.22,215.93L133.53,212.42L133.63,210.35L133.84,211.59L134.15,200.43L134.46,206.88L134.56,205.93L135.08,221.52L135.39,214.81L135.49,213.62L135.91,211.59L137.04,233.34L137.15,233.25L137.25,223.28L137.97,208.55L138.18,213.61L138.28,216.81L138.39,222.14L138.7,204.9L138.8,203.68L139.11,204.47L139.32,198.02L139.42,202.83L139.52,213.99L139.63,218.39L140.04,211.48L140.25,213.8L140.35,208.8L140.45,205.46L140.76,217.36L140.87,217.38L141.28,221.62L141.38,204.54L142.21,167.97L142.31,180.94L142.42,186.07L142.62,194.19L142.73,199.38L143.04,194.12L144.28,230.41L144.9,228.83L145,226.79L145.83,210.42L146.14,216.75L146.24,219.34L146.86,228.11L147.07,222.51L147.17,220.99L147.38,215.89L147.48,210.48L147.79,208L147.89,211.72L148.2,208.1L148.31,212.85L148.82,208.4L149.03,211.69L149.13,215.12L149.24,208.99L149.55,221.65L149.75,219.41L149.86,219.47L150.06,220.93L150.17,213.53L150.99,205.03L151.1,218.31L151.72,225.28L151.92,222.77L152.03,217.92L152.54,218.07L152.75,213.11L152.85,214.98L152.96,215.62L153.47,220.82L153.68,215.08L153.78,215.19L154.4,214.39L155.23,236.3L155.33,232.5L155.44,230.71L156.68,193.32L156.89,197.43L156.99,202.28L157.3,218.63L157.71,213.05L157.82,209.66L157.92,209.89L158.02,205.71L158.75,227.72L159.06,217.6L159.16,214.06L159.26,214.72L159.37,211.19L159.47,210.44L159.57,205.88L159.78,213.75L160.19,206.67L160.3,212.7L160.71,222.06L161.12,218.18L161.23,217.24L161.64,209.44L161.85,217.52L161.95,219.26L162.05,219.88L162.26,216.67L162.36,217.93L162.47,214.94L162.57,212.76L162.88,221.24L162.98,221.35L163.29,218.18L163.6,225.24L163.71,216.65L164.02,205.52L164.53,209.73L164.64,212.03L165.15,226.82L165.57,222.76L165.67,226.05L166.08,218.9L166.29,230.35L166.39,232.47L166.6,229.86L166.81,234.45L166.91,234.16L167.01,237.19L167.12,234.35L167.53,238.05L167.63,242.46L167.84,241.83L167.94,235.21L168.05,235.95L168.15,233.61L168.25,229.78L168.56,212.34L169.08,216.32L169.18,217.81L169.49,222.91L169.7,213.78L169.91,222.13L170.01,219.99L170.32,224.5L170.94,211.24L171.04,214.18L171.25,209.53L171.46,214.26L171.56,219.42L172.18,213.57L172.28,217.22L172.39,217.61L172.49,215.19L172.8,218.92L173.01,207.3L173.21,213.15L173.32,214.3L174.66,232.5L174.76,225.21L174.87,227.51L175.18,218.98L175.28,216.64L175.9,204.86L176,207.82L176.11,214.95L176.21,210.73L176.73,219.41L176.83,221.85L177.04,214.79L177.14,220.64L177.25,221.2L178.38,231.52L178.49,239.59L179.42,228.62L179.52,229.34L179.62,234.23L180.24,245.04L180.35,240.77L180.45,238.77L181.07,224.71L181.59,225.43L181.69,227L182,231.98L182.1,223.63L182.21,225.33L182.31,223.8L182.93,214.02L183.03,217.36L183.14,222.69L183.55,219.22L183.65,225.13L184.07,219.77L184.17,226.44L184.89,208.42L185.1,210.86L185.2,222.4L185.31,213.71L185.62,227.33L185.82,226.65L185.93,225.57L186.13,222.05L186.34,230.37L186.44,226.48L186.55,229.7L186.75,228.77L186.86,223.39L187.17,227.88L187.48,220.95L187.58,225.1L187.68,224.34L187.89,222.46L187.99,209.47L188.1,208.48L188.3,213.34L188.41,215.36L188.51,211.72L188.82,219.15L188.92,232.55L189.85,212.57L189.96,218.38L190.06,221.66L190.68,232.78L191.09,229.36L191.2,225.84L191.3,225.04L191.61,228.05L191.71,227.82L191.82,226.84L191.92,229.92L192.02,236.6L193.06,211.88L193.16,222.2L193.26,222.92L193.47,219.85L193.57,219.1L193.78,212.44L193.99,223.38L194.09,221.69L194.19,221.7L195.02,229.96L195.12,229.46L195.23,227.79L195.33,231.8L195.64,222.32L195.74,214.02L196.05,206.84L196.16,208.12L196.26,203.34L197.5,242.23L197.61,240.99L197.71,240.08L197.81,240.32L197.92,238.74L198.02,235.51L198.85,215.03L199.26,216.63L199.36,219.08L199.57,227.67L200.19,224.36L200.29,222.43L200.5,224.89L200.71,217.94L201.02,222.11L201.12,219.03L201.22,221.37L201.43,211.43L201.64,216.23L201.74,215.32L202.57,209.13L202.67,209.63L202.77,213.38L203.7,229.18L203.91,228.86L204.01,225.39L204.32,228.67L204.63,215.99L204.84,223.01L204.94,227.87L205.25,221.71L205.36,229.15L205.56,227.96L205.67,229.48L205.87,228.27L205.98,231.17L206.08,228.48L206.18,223.45L206.7,222.58L207.11,237.88L207.32,236.46L207.42,234.06L207.63,242.58L207.94,230.11L208.04,225.58L208.25,228.31L208.46,222.66L208.56,215.31L209.18,213.28L209.59,227.26L209.7,224.68L210.42,234.25L210.52,225.55L210.63,223.84L210.83,226.73L211.04,226.16L211.14,228.56L211.76,225.11L211.87,229.76L212.07,230.16L212.18,223.11L212.28,218.97L212.69,228.69L212.8,226.5L212.9,225.18L213,224.62L213.11,228.57L214.04,242.8L214.14,240.59L214.45,240.86L214.97,216.86L215.38,223.03L215.48,225.07L215.9,237.57L216.1,220.94L216.21,222.66L216.52,212.27L216.93,219.61L217.03,222.44L217.55,226.52L217.66,216.83L217.97,227.02L218.38,222.82L218.48,219.66L219.62,235.13L219.72,229.68L219.93,231.43L220.34,226.56L220.45,230.21L220.55,226.71L220.76,232.95L221.07,230.5L221.17,235.18L222,224.92L222.1,226.48L222.2,231.67L222.82,223.08L223.13,223.48L223.24,228.51L223.44,225.91L223.75,238.55L223.96,232.87L224.06,227.87L224.68,204.39L224.89,211.45L224.99,216.49L225.1,211.49L225.61,222.32L225.72,223.78L225.92,218.65L226.34,228.74L226.44,231.31L226.65,228.36L226.75,233L226.85,232.6L226.96,235.42L228.2,217.98L228.3,221.14L228.4,218.39L228.92,224.49L229.02,227.34L229.13,226.88L229.23,228.84L229.33,232.74L230.47,246.26L230.57,243.21L230.88,235.78L230.99,226.98L231.09,227.78L231.19,225.53L231.3,220.36L231.81,197.69L232.23,206.57L232.33,204.66L233.47,230.44L233.88,228.34L233.98,227.93L234.19,221.98L234.4,228.19L234.5,235.19L235.12,238.68L235.22,235.27L235.84,218.59L236.05,223.65L236.15,227.34L236.36,228.29L236.46,222.71L236.77,237.57L237.19,228.42L237.29,226.73L237.39,228.93L237.7,220.76L237.81,217.45L237.91,213.16L238.22,229.79L238.33,229.73L238.84,240.92L239.36,239.55L239.46,233.29L239.57,236.61L239.88,224.42L239.98,219.75L240.08,215.77L240.39,224.42L240.5,219.57L240.6,227.97L241.43,214.48L241.53,214.73L241.63,224.46L242.46,213.22L242.56,212.48L242.77,233.95L243.39,230.87L243.49,230.71L243.91,233.17L244.63,211.81L244.94,218.27L245.04,220.32L245.15,221.18L245.25,229.51L245.46,222.56L245.66,225L245.77,227.28L246.39,242.2L246.8,240.03L246.9,239.2L247.73,231.63L247.94,235.09L248.04,238.37L248.45,241.54L248.97,232.99L249.07,233.87L249.38,218.92L249.9,224.68L250,224.29L251.04,239.03L251.14,237.25L251.97,224.56L252.07,224.64L252.17,226.22L253.1,242.03L253.21,237.93L253.31,232.03L253.52,238.83L253.93,229.64L254.03,222.72L254.96,243.34L255.07,241.1L255.17,238.48L255.58,222.28L256,228.49L256.1,230.82L256.93,241.43L257.03,236.41L257.34,241.6L257.65,236.59L257.75,231.48L257.96,232.21L258.58,216.6L258.68,223.93L259.51,250.81L259.82,245.44L259.93,243.29L260.03,246.25L260.24,233.8L260.34,232.15L260.65,220.37L261.06,230.89L261.17,230.09L261.27,228.63L261.37,234.35L261.48,238.66L261.58,241.13L261.99,232.96L262.1,229.82L262.92,219.89L263.03,225.9L263.13,234.66L263.96,248.86L264.06,246.3L264.16,241.05L264.27,242.59L264.47,240.16L264.78,241.72L264.89,240.02L265.51,246.15L265.71,245.85L265.82,243.22L266.02,240.82L266.13,245.87L266.23,246.05L266.33,243.24L267.37,229.41L267.47,231.79L267.78,229.63L268.3,237.75L268.4,235.51L268.5,235.97L268.71,236.65L269.23,224.53L269.54,228.74L269.64,228.86L270.16,238.11L270.36,229.13L270.47,225.41L270.78,222.34L270.88,223.6L270.98,227.58L271.19,225.38L271.29,231.62L271.71,222.74L272.02,222.79L272.12,225.66L272.22,223.84L272.33,229.75L272.74,225.71L272.84,227.4L273.05,227.77L273.15,230.56L273.36,233.34L273.57,228.33L273.67,226.56L274.08,218.93L274.29,221.87L274.39,225.98L275.01,237.98L275.43,237.23L275.53,231.3L275.63,228.33L276.05,232.44L276.15,238.67L276.25,237.2L276.46,244.06L276.67,238.79L276.77,241.16L277.39,236.08L277.6,240.38L277.7,241.06L277.91,244.15L278.63,223.76L278.84,223.85L278.94,230.08L279.15,222.94L279.56,230.39L279.67,228.43L279.77,228.24L279.87,222.74L280.08,237.97L280.39,233.99L280.49,231.44L280.6,230.38L280.7,235.1L280.8,241.83L281.01,238.19L281.22,247.61L281.32,243.97L281.42,247.99L281.53,252.44L281.84,237.28L281.94,234.07L282.46,226.04L282.66,232.77L282.77,240.34L283.59,226.3L283.7,227.68L283.8,232.92L283.9,236.38L284.32,229.94L284.52,232.05L284.63,231.38L284.83,227.42L285.56,241.65L285.66,237.82L285.87,247.03L286.38,241.6L286.49,237.67L286.69,233.85L286.8,228.54L286.9,230.19L287,225.46L287.31,227.51L287.42,225.66L287.52,225.31L287.62,226.53L287.73,233.03L287.83,226.19L288.35,235.7L288.45,238.58L288.66,235.59L288.86,243.37L288.97,243.83L289.07,243.37L289.17,247.82L289.28,248.86L289.38,242.66L289.59,244.15L289.69,238.64L289.79,236.04L290.1,226.31L290.52,228.26L290.62,234.76L291.45,249.43L291.55,246.07L291.65,242.38L292.89,222.87L293,228.28L293.31,236.47L293.82,233.93L293.93,229.52L294.34,223.45L294.44,228.42L294.55,232.74L294.96,234.76L295.17,230.13L295.27,234.05L295.48,234.65L296.41,209.49L296.61,216.42L296.72,223.86L297.03,241.79L297.54,237.55L297.65,235.52L297.96,229.27L298.06,234.72L298.16,236.06L298.27,236.8L298.37,235.05L298.47,235.55L298.58,230.66L298.68,231.06L298.78,229.11L298.89,229.62L298.99,224.34L299.09,222.63L299.3,226.35L299.61,226.05L299.71,229.72L299.82,229.08L299.92,233.11L300.13,235.24L300.23,237.72L300.96,251.88L301.16,250.91L301.27,248.57L301.89,233.15L302.3,233.93L302.4,237.91L302.61,237.52L302.71,239.61L303.02,242.4L303.23,239.44L303.33,236.38L303.44,236.25L303.54,236.71L303.64,234.81L304.16,238.87L304.37,235.68L304.47,233.35L305.4,249.17L305.5,247.49L305.61,243.51L305.71,244.49L305.92,240.03L306.02,238.95L306.23,240.35L306.74,231.39L306.85,234.63L306.95,238.79L307.16,237.53L307.47,241.13L307.78,240.29L307.88,239.63L308.19,236.76L308.4,240.17L308.5,240.16L308.6,241.98L308.91,237.24L309.22,244.01L309.33,242.66L310.36,198.65L310.46,193.13L310.57,192.17L310.67,204.9L311.6,235.08L311.7,231.98L311.81,232.46L313.05,216.74L313.15,226.35L313.46,224.25L313.56,228.5L313.67,232.08L313.77,229.3L313.98,236.49L314.18,236.11L314.29,239.14L314.7,240.94L315.11,232.57L315.22,232.88L315.32,240.61L316.04,238.42L316.15,240.44L316.46,234.22L316.56,234.92L316.66,229.18L317.18,227.2L317.49,234.4L317.59,237.39L317.7,236.02L317.8,240.33L317.9,245.05L318.11,245.57L318.32,239.6L318.52,244.94L318.63,248.08L318.94,249L319.04,244.18L319.35,248.57L319.56,238.69L319.66,234.17L319.87,226.72L320.28,226.77L320.38,234.9L320.69,227.17L321.11,231.25L321.21,232.89L321.42,235.23L321.83,228.68L321.94,226.83L322.04,229.18L322.35,219.98L322.45,216.5L322.56,216.62L322.66,220.54L322.76,219.11L322.97,226.38L323.07,229.84L323.69,251.04L324.21,250.16L324.31,245.97L324.52,252.37L324.93,244.56L325.04,240.03L325.24,242.05L326.17,231.96L326.28,233.57L326.38,235.21L326.48,235.06L326.59,238.41L326.79,237.46L326.9,241.07L327,248.11L327.41,239.06L327.62,244.41L327.72,249.97L327.93,246.6L328.24,253.69L328.34,254.17L329.38,222.79L329.58,229.61L329.69,232.43L329.79,233.49L329.89,226.46L330.82,244.73L330.93,243.76L331.03,243.91L331.13,246.2L331.24,241.34L331.96,242.25L332.06,240.76L332.37,247.59L332.68,239.87L332.79,239.74L332.89,242.1L333.2,238.55L333.3,233.2L334.34,243.07L334.65,241.95L334.75,242.33L335.06,238.21L335.16,241.37L335.47,237.6L335.89,237.79L335.99,243.96L336.09,240.76L336.4,244.99L336.61,244.53L336.71,245.88L336.82,247.35L337.02,245.26L337.13,240.43L337.23,239.27L337.33,242.31L337.44,239.76L337.54,244.83L337.85,239.49L338.16,243.97L338.26,245.52L338.47,248.75L338.68,242.22L338.78,243.26L338.88,237.6L339.09,241.72L339.4,231.47L339.5,234.78L339.61,236.31L339.81,240.09L340.02,238.23L340.12,237.7L340.23,238.21L340.33,234.82L340.85,238.56L340.95,236.79L341.05,235.62L341.99,242.61L342.09,242.87L342.19,247.33L342.81,247.29L342.92,244.35L343.02,245.36L343.23,240.88L343.43,242.47L343.54,242.07L343.95,240.32L344.05,240.82L344.16,218.59L344.98,102.48L345.19,128.11L345.29,150.13L346.74,221.75L346.84,220.06L346.95,211.69L347.26,216.76L347.36,221.03L347.46,220.44L347.57,222.74L347.67,220.57L347.77,227.74L348.08,230.5L348.19,228.06L348.29,219.13L348.39,217.77L348.6,219.83L348.7,219.12L348.81,225.89L349.32,240.21L350.05,239.95L350.15,237.4L350.25,239.17L350.46,235.43L350.56,229.94L350.67,230.53L350.77,227.73L350.87,226.86L350.98,227L351.08,232.16L351.6,224.28L351.91,225.52L352.01,226.1L352.84,246.04L352.94,241.91L353.04,235.03L353.46,237.99L353.56,234.72L353.66,232.24L353.77,231.9L353.87,232.9L353.97,237.01L354.28,232.23L354.39,227.5L354.49,227.32L354.59,230.67L354.9,223.06L355.21,233.69L355.32,236.19L355.42,240.47L355.94,234.72L356.04,233.4L356.35,230.61L356.56,234.2L356.66,237.6L357.38,244.15L357.49,242.28L357.59,239.13L357.8,240.95L357.9,240.04L358,242.61L358.11,243.08L358.21,241.29L358.31,237.18L358.42,240.5L358.73,233.66L358.83,228.69L359.04,225.27L359.24,234.73L359.35,229.17L359.45,232.75L359.55,232.3L359.66,239L360.48,254.95L360.59,251.22L360.69,245.85L360.79,245.44L360.9,239.74L361.41,224.52L361.52,227.57L361.62,233.88L361.83,234.91L362.03,233.07L362.14,236.46L362.24,240.97L362.55,228.21L362.86,239.26L362.97,238.38L363.38,241.61L363.48,246.23L363.79,247.05L364.1,241.13L364.31,242.63L364.41,243.52L364.72,242.65L365.24,250.01L365.34,249.97L365.45,245.29L365.76,250.92L365.96,247.11L366.07,245.13L366.38,248.57L366.58,242.09L366.69,238.95L367,234.58L367.51,237.45L367.62,242.7L367.82,242.23L367.93,244.78L368.96,229.42L369.06,230.16L369.17,232.9L369.68,239L369.79,241.45L370.72,221.97L370.82,225.22L370.92,227.15L371.03,228L371.13,235.12L371.75,251.28L372.06,250.21L372.16,243.04L372.58,236.92L372.78,242.71L372.89,246.06L373.2,255.83L373.3,248.5L373.4,245.28L373.51,248.27L373.61,241.17L373.82,242.1L373.92,238.57L374.02,237.74L374.13,239.5L374.23,242.49L374.95,250.98L375.06,247.6L375.16,245.21L375.26,249.67L375.68,237.82L375.78,228.47L375.88,225.75L376.09,234.19L376.19,229.76L376.3,235.86L376.81,259.85L377.23,252.11L377.33,247.93L378.47,231.19L378.57,230.57L378.67,234.51L378.98,221.37L379.09,221.81L379.19,223.64L380.12,243.78L380.22,240.28L380.53,243.88L380.64,245.33L380.74,248.45L381.05,240.25L381.26,241.34L381.36,240.84L381.67,231.98L382.08,235.87L382.19,239.87L382.7,254.86L383.12,249.22L383.22,244.37L383.33,240.64L383.74,247.82L383.84,247.4L383.95,245.65L384.26,256.95L384.67,244.62L384.77,244.95L384.88,245.81L385.08,241.7L385.19,236.18L385.29,236.48L385.39,234.94L385.5,235.67L385.6,239.57L385.7,239.77L385.81,237.39L385.91,232.81L386.43,240.33L386.53,239.53L386.63,238.15L386.74,241.33L386.84,246.99L387.77,239.02L387.87,240.92L388.29,252.96L388.7,247.17L388.8,245.62L389.32,235.39L389.63,241.31L389.73,243.26L389.84,243.04L389.94,244.39L390.04,241.95L390.56,254.59L390.97,252.98L391.08,246.33L391.59,225.38L392.01,228.68L392.11,235.66L392.21,234.55L392.32,238.86L392.42,241.53L392.83,233.76L393.04,240.2L393.14,246.34L393.25,245.57L393.35,246.29L393.45,250.52L393.66,251.07L395.21,235.49L395.31,240.45L395.42,237.38L395.73,241.25L396.04,240.11L396.14,245.71L396.35,246.77L396.66,237.65L396.76,234.02L397.07,227.54L397.48,230.01L397.59,236.35L398,245.91L398.21,235.98L398.41,242.83L398.52,240.38L398.62,239.14L398.93,243.09L399.03,246.76L399.34,234.98L399.86,237.29L399.96,238.95L400.69,253.16L401,252.71L401.1,255.87L401.2,254.66L401.41,260.1L401.62,258.55L401.72,257.71L401.82,258.69L401.93,254.58L402.03,248.22L402.34,242.27L402.75,247.37L402.86,250.94L403.06,258.74L403.58,251L403.68,252.74L404.2,253.03L405.44,231.15L405.55,234L405.65,236.73L405.75,236.06L405.86,241.66L406.27,260.01L406.68,259.54L406.79,250.1L407.2,235.76L407.61,241.89L407.72,248.75L408.13,252.6L408.23,245.97L408.34,245.61L408.65,242.03L408.75,238.53L408.85,234.68L409.16,240.33L409.47,238.87L409.58,241.36L409.89,248.96L410.4,244.88L410.51,245.07L410.71,239.2L410.92,244.64L411.02,248.79L411.13,248.66L411.23,252.25L412.16,234.96L412.26,235.02L412.37,239.18L412.57,246.28L412.88,233.33L412.99,231.67L414.02,256.06L414.33,250.31L414.43,247.45L414.74,245.18L414.95,248.71L415.05,248.31L415.16,242.64L415.36,240.03L415.47,237.81L415.98,232.48L416.29,244.11L416.4,241.72L416.5,237.69L417.02,246.67L417.12,246.76L417.22,245.26L417.33,251.74L417.43,253.48L418.57,228L418.67,232.33L418.77,235.54L419.08,249.93L419.6,246.69L419.7,246.39L420.01,241.29L420.22,245.12L420.32,246.19L420.43,245.93L420.53,247.44L420.63,247.06L420.74,249.18L420.94,253.36L421.15,244.4L421.36,246.51L421.46,242.86L421.77,239.74L421.98,245.86L422.08,244.41L422.18,243.83L422.49,245.51L422.7,240.67L422.91,243.19L423.01,247.13L423.63,256.94L423.94,251.9L424.04,248.67L424.25,248.04L424.46,251.04L424.56,245.93L424.77,249.85L425.29,246.39L425.39,243.32L425.49,247.81L425.7,233.07L425.91,238.42L426.01,236.64L427.04,244.71L427.15,244.09L427.25,242.82L427.56,250.75L427.97,247.39L428.08,243.08L428.18,239.31L428.59,244.26L428.8,241.43L428.9,241.19L429.11,246.28L429.32,240.05L429.73,244.21L429.83,241.45L430.14,247.14L430.35,245.93L430.45,242.84L430.97,250.05L431.18,245.39L431.28,242.89L431.59,236.79L432,240.7L432.11,244.53L432.21,242.96L432.42,249L432.52,248.57L432.62,249.36L432.73,249.16L432.83,245.03L433.04,239.65L433.35,250.35L433.55,244.9L433.66,245.29L433.97,253.78L434.48,252.31L434.59,252.82L435.41,245.94L435.52,240.99L435.62,236.97L436.14,244.24L436.24,244.21L436.55,254.61L437.07,250.65L437.17,250.26L437.89,237.94L438.2,239.31L438.31,238.64L438.51,236.81L438.62,243.71L438.93,245.82L439.03,247.5L439.13,248.14L439.24,243.97L439.44,244.19L439.96,237.92L440.06,243.52L440.27,244.19L440.37,241.97L440.68,244.56L440.79,245.84L441.2,231.93L441.72,234.8L441.82,237.81L442.03,241.67L442.13,247.45L442.23,247.28L442.34,249.58L442.85,250.15L443.27,243.1L443.37,244.71L443.58,243.82L444.3,253.54L444.4,251.28L444.51,250.34L444.82,250.66L445.33,243.93L445.44,246.63L445.54,249.63L445.75,244.01L446.16,250.15L446.27,247.64L446.37,248.67L446.68,249.01L447.09,240.58L447.3,242.61L447.4,245.75L447.51,237.21L448.13,240.05L448.23,240.26L448.33,239.93L448.44,248.98L449.37,237.46L449.47,241.76L450.5,253.29L450.61,251.42L450.71,250.56L450.81,249.78L450.92,252.7L451.02,254.11L451.12,253.64L451.23,248.28L451.33,248.44L451.43,247.48L451.54,245.99L451.74,246.21L451.95,240.92L452.36,244.63L452.47,244.37L452.57,244.66L452.67,247.89L452.98,246.28L453.19,250.95L453.29,248.06L453.4,246.51L453.81,243.08L454.33,255.41L454.53,251.43L454.64,249.47L454.95,248.9L455.57,258.23L455.67,254.95L456.29,239.47L456.6,247.56L456.7,250.25L456.81,250.38L456.91,251.91L457.01,249.25L457.12,254.91L457.53,250.56L457.63,254.56L457.84,254.37L458.15,257.78L458.36,256.72L458.46,254.94L459.8,235.2L459.91,234.87L460.01,235.03L460.11,240.15L460.22,239.61L460.32,241.26L460.42,242.78L460.73,242.25L460.84,245.65L460.94,243.46L461.04,232.63L461.46,230.77L461.77,238.82L461.87,242.09L462.08,253.36L462.59,240.16L462.7,239.09L463.01,238.11L463.52,249.19L463.73,243.71L463.83,244.69L464.04,242.19L464.35,245.39L464.45,244.99L464.56,247.51L464.76,241.6L465.18,247.68L465.28,246.01L465.38,245.06L466.11,232.73L466.32,234.39L466.42,239.56L467.04,253.83L467.25,250.61L467.35,250.67L467.45,250.87L467.56,248.18L467.76,243.65L467.87,249.53L468.28,247.41L468.38,249.01L468.49,250.33L468.59,246.19L468.69,246.63L468.8,243.9L469.73,255.62L469.83,252.27L470.97,239.81L471.07,240.72L471.38,248.53L471.59,237.72L471.69,240.1L471.79,237.83L472.93,252.47L473.14,250.01L473.24,250.6L473.65,261.59L474.07,257.62L474.17,255.1L474.48,245.85L475,248.47L475.1,251.67L475.41,255.47L475.82,253.44L475.93,252.67L476.24,244.98L476.55,249.26L476.65,252.49L476.86,255.8L477.06,250.38L477.27,255.32L477.37,250.29L477.79,243.77L477.99,250.93L478.3,244.64L478.41,246.13L479.23,257.71L479.75,255.21L479.85,251.74L480.06,254.76L480.27,248.08L480.47,250.54L480.58,249.17L480.68,249.35L480.78,253.05L481.2,254.5L481.92,241.03L482.02,245.32L482.13,245.69L482.23,253.17L482.75,264.05L482.95,258.85L483.06,255.76L483.57,244.78L483.88,250.04L483.99,254.02L484.09,254.9L484.19,252.52L484.3,253.54L484.4,248.73L484.5,252.02L485.02,246.66L485.12,246.3L485.33,253.03L485.74,247.6L485.85,242.71L486.05,246.47L486.16,242.59L486.57,243.82L486.67,243.58L486.78,246.22L487.19,240.4L487.3,239.04L487.4,234.97L487.81,242.33L487.92,248.94L488.23,256.92L488.33,261.2L488.43,261.52L488.54,264.41L490.09,254.69L490.19,255.38L490.29,250.05L490.4,251.83L490.5,247.87L490.6,240.54L490.91,239.22L492.15,252.64L492.26,249.8L492.77,256.82L492.98,251.99L493.08,247.82L493.29,250.31L493.6,250L493.7,243.15L493.91,242.77L494.01,243.67L494.12,244.57L494.43,247.93L494.53,246.75L494.63,254.81L495.15,254.45L495.25,256.38L495.36,253.66L495.87,260.21L496.08,253.27L496.18,247.83L496.29,247.38L496.39,241.49L496.8,234.54L497.11,240L497.22,242.97L498.25,255.23L498.35,250.62L499.18,232.46L499.28,235.92L499.39,241.36L500.32,257.7L500.42,253.4L500.73,261.35L501.14,257.32L501.25,255.02L501.35,255.15L501.45,252.7L501.97,236.74L502.28,241.33L502.38,243.64L502.69,251.94L503.21,250.93L503.31,249.18L503.42,247.8L503.73,251.18L503.83,252.6L503.93,253.72L504.04,249.67L504.14,250.8L504.24,243.11L505.07,226.6L505.17,235.68L505.59,250.3L506.1,246.81L506.21,245.24L506.31,245.5L506.41,248.82L506.72,260.08L507.14,253.98L507.24,250.57L507.66,246.18L507.86,254.08L507.97,255.72L508.59,263.16L508.69,257.76L508.79,255.7L509.52,243.6L509.62,249.13L509.72,249.37L510.03,258.28L510.45,251.83L510.55,252.12L510.86,246.38L511.38,249.4L511.48,248.93L512,257.13L512.41,254.77L512.51,254L512.62,254.5L512.72,258.71L512.82,257.56L512.93,258.99L513.03,264.91L514.27,233.33L514.79,235.27L514.89,240.13L514.99,238.02L515.2,242.76L515.3,247.5L515.51,250.09L515.72,247.57L515.82,243.07L515.92,244.79L516.03,242.19L516.13,243.93L516.23,229.48L517.06,112.23L517.37,146.21L517.47,164.99L518.51,240.85L518.71,238.88L518.82,240.46L519.13,236.33L519.44,238.67L519.54,241.09L520.06,256L520.37,245L520.47,242.57L520.57,240.62L520.99,247.05L521.09,249.59L521.4,258.64L521.61,249.63L521.71,248.59L522.02,243.82L522.12,246.13L522.23,248.13L522.33,248.37L522.43,253.92L522.64,258.3L523.05,251.45L523.16,249.54L523.57,237.09L523.98,241.71L524.09,244.13L525.33,257.4L525.43,251.99L525.64,252.74L525.74,256.06L525.84,256.65L525.95,250.27L526.15,246.41L526.36,255.64L526.46,257.4L527.19,248.23L527.29,240.28L527.7,235.49L527.81,231.45L528.84,245.32L528.95,246.17L529.15,253.51L529.77,251.82L529.88,252.25L530.29,251.15L530.6,256.13L530.81,256.02L530.91,252.94L531.22,257.55L532.15,240.17L532.25,242.74L532.36,246.64L532.56,249.81L532.87,245.72L532.98,245.35L533.08,247.68L533.6,247.29L533.7,241.36L533.8,241.54L533.91,240.13L534.53,246.18L534.63,253.6L534.73,254.77L535.04,250.17L535.25,252.26L535.35,247.67L535.66,240.78L535.97,251.39L536.08,248.79L536.18,249.14L536.28,246.97L536.39,251.89L536.59,255.69L536.9,247.36L537.01,248.81L537.11,248.82L537.94,260.69L538.04,259.3L538.14,260.21L538.87,244.79L539.07,246.5L539.18,250.16L539.38,248.74L539.59,253.09L539.69,255.36L539.9,249.63L540.42,252.93L540.52,254.23L540.83,261.9L541.04,258.15L541.14,254.22L541.35,256.95L541.55,250.61L541.66,247.37L541.76,246.28L541.86,250.7L542.17,249.3L542.28,252.05L542.38,251.6L542.48,256.97L542.59,260.84L543.1,255.08L543.21,248.85L543.31,249.27L543.41,246.65L543.52,246.04L544.03,251.09L544.14,254.99L544.65,250.02L544.76,248.29L545.17,241.95L545.58,243.46L545.69,243.43L546,251L546.31,243.31L546.41,246.09L546.51,246.29L546.62,247.99L546.93,241.79L547.03,241.57L547.55,235.7L547.65,240.74L547.75,243.11L548.48,253.12L548.58,246.19L548.68,242.79L548.79,239.41L549.2,246.05L549.31,245.7L549.41,244.96L549.72,256.43L550.24,252.92L550.34,251.7L550.55,254.67L550.65,241.84L551.48,193.69L551.68,207.42L551.79,215.8L552.92,257.84L553.03,256.53L553.13,256.86L553.23,256.76L553.34,254.64L553.75,254.86L554.16,245.15L554.27,246.16L554.37,247.73L554.68,242.91L555.82,265.07L556.13,261.94L556.23,259.83L557.47,241.48L557.57,244.72L557.68,249.63L558.09,260.69L558.61,256.46L558.71,253L559.02,244.39L559.54,248.05L559.64,251.6L559.85,256.08L560.36,251.46L560.47,248.86L560.57,249.05L560.67,246.5L560.78,244.31L560.88,248.72L561.19,247.43L561.29,250.28L561.4,252.53L561.81,249.4L562.02,250.84L562.12,250.17L562.43,240.93L562.74,251.89L562.84,250.42L562.95,250.24L563.77,264.4L563.98,263.94L564.08,260.25L564.29,262.75L564.81,261.45L564.91,259.41L565.01,263.69L565.43,250.66L565.53,248.11L565.94,243.81L566.15,249.79L566.36,245.65L566.46,246.35L567.8,261.69L567.91,261.61L568.01,255L568.63,260.98L568.94,259.93L569.04,256.85L569.67,241.85L570.08,245.44L570.18,247.28L570.29,244.7L570.7,251.11L570.8,253.89L570.91,254.01L571.01,248.14L571.32,251.9L571.73,243.24L571.84,246.02L571.94,252.72L572.04,253.53L572.15,248.51L572.25,251.78L572.35,256.95L572.56,261.97L572.77,255.17L572.87,250.25L573.08,250.56L573.39,238.88L573.8,245.45L573.9,244.28L574.63,235.02L574.73,237.78L574.83,239.58L575.76,265.69L576.07,262.5L576.18,262.23L576.38,264.32L576.8,259.38L576.9,251.19L577.73,248.19L577.83,255.41L578.35,261.89L578.55,256.38L578.66,256.43L579.07,251.51L579.38,256.17L579.48,259.28L579.9,254.38L580,256.34"/></g><g class="points"/><g class="text"/></g></g></g><g class="overplot"/><path class="xlines-above crisp" style="fill: none;" d="M0,0"/><path class="ylines-above crisp" style="fill: none;" d="M0,0"/><g class="overlines-above"/><g class="xaxislayer-above"><g class="xtick"><text text-anchor="middle" x="0" y="403" style="font-family: TOBESTRIPPEDOpen SansTOBESTRIPPED, verdana, arial, sans-serif; font-size: 12px; fill: rgb(68, 68, 68); fill-opacity: 1; white-space: pre;" transform="translate(60,0)">0</text></g><g class="xtick"><text text-anchor="middle" x="0" y="403" style="font-family: TOBESTRIPPEDOpen SansTOBESTRIPPED, verdana, arial, sans-serif; font-size: 12px; fill: rgb(68, 68, 68); fill-opacity: 1; white-space: pre;" transform="translate(163.35,0)">1000</text></g><g class="xtick"><text text-anchor="middle" x="0" y="403" style="font-family: TOBESTRIPPEDOpen SansTOBESTRIPPED, verdana, arial, sans-serif; font-size: 12px; fill: rgb(68, 68, 68); fill-opacity: 1; white-space: pre;" transform="translate(266.7,0)">2000</text></g><g class="xtick"><text text-anchor="middle" x="0" y="403" style="font-family: TOBESTRIPPEDOpen SansTOBESTRIPPED, verdana, arial, sans-serif; font-size: 12px; fill: rgb(68, 68, 68); fill-opacity: 1; white-space: pre;" transform="translate(370.05,0)">3000</text></g><g class="xtick"><text text-anchor="middle" x="0" y="403" style="font-family: TOBESTRIPPEDOpen SansTOBESTRIPPED, verdana, arial, sans-serif; font-size: 12px; fill: rgb(68, 68, 68); fill-opacity: 1; white-space: pre;" transform="translate(473.4,0)">4000</text></g><g class="xtick"><text text-anchor="middle" x="0" y="403" style="font-family: TOBESTRIPPEDOpen SansTOBESTRIPPED, verdana, arial, sans-serif; font-size: 12px; fill: rgb(68, 68, 68); fill-opacity: 1; white-space: pre;" transform="translate(576.75,0)">5000</text></g></g><g class="yaxislayer-above"><g class="ytick"><text text-anchor="end" x="59" y="4.199999999999999" style="font-family: TOBESTRIPPEDOpen SansTOBESTRIPPED, verdana, arial, sans-serif; font-size: 12px; fill: rgb(68, 68, 68); fill-opacity: 1; white-space: pre;" transform="translate(0,373.5)">0</text></g><g class="ytick"><text text-anchor="end" x="59" y="4.199999999999999" style="font-family: TOBESTRIPPEDOpen SansTOBESTRIPPED, verdana, arial, sans-serif; font-size: 12px; fill: rgb(68, 68, 68); fill-opacity: 1; white-space: pre;" transform="translate(0,325.15)">100</text></g><g class="ytick"><text text-anchor="end" x="59" y="4.199999999999999" style="font-family: TOBESTRIPPEDOpen SansTOBESTRIPPED, verdana, arial, sans-serif; font-size: 12px; fill: rgb(68, 68, 68); fill-opacity: 1; white-space: pre;" transform="translate(0,276.81)">200</text></g><g class="ytick"><text text-anchor="end" x="59" y="4.199999999999999" style="font-family: TOBESTRIPPEDOpen SansTOBESTRIPPED, verdana, arial, sans-serif; font-size: 12px; fill: rgb(68, 68, 68); fill-opacity: 1; white-space: pre;" transform="translate(0,228.46)">300</text></g><g class="ytick"><text text-anchor="end" x="59" y="4.199999999999999" style="font-family: TOBESTRIPPEDOpen SansTOBESTRIPPED, verdana, arial, sans-serif; font-size: 12px; fill: rgb(68, 68, 68); fill-opacity: 1; white-space: pre;" transform="translate(0,180.11)">400</text></g><g class="ytick"><text text-anchor="end" x="59" y="4.199999999999999" style="font-family: TOBESTRIPPEDOpen SansTOBESTRIPPED, verdana, arial, sans-serif; font-size: 12px; fill: rgb(68, 68, 68); fill-opacity: 1; white-space: pre;" transform="translate(0,131.76)">500</text></g><g class="ytick"><text text-anchor="end" x="59" y="4.199999999999999" style="font-family: TOBESTRIPPEDOpen SansTOBESTRIPPED, verdana, arial, sans-serif; font-size: 12px; fill: rgb(68, 68, 68); fill-opacity: 1; white-space: pre;" transform="translate(0,83.42)">600</text></g></g><g class="overaxes-above"/></g></g><g class="polarlayer"/><g class="ternarylayer"/><g class="geolayer"/><g class="pielayer"/><g class="glimages"/><defs id="topdefs-ede892"><g class="clips"/></defs><g class="layer-above"><g class="imagelayer"/><g class="shapelayer"/></g><g class="infolayer"><g class="g-gtitle"><text class="gtitle" style="font-family: TOBESTRIPPEDOpen SansTOBESTRIPPED, verdana, arial, sans-serif; font-size: 17px; fill: rgb(68, 68, 68); opacity: 1; font-weight: normal; white-space: pre;" x="350" y="30" text-anchor="middle" dy="0em">loss_avg10</text></g><g class="g-xtitle"/><g class="g-ytitle"/></g></svg>