<svg class="main-svg" xmlns="http://www.w3.org/2000/svg" xmlns:xlink="http://www.w3.org/1999/xlink" width="700" height="450" style="" viewBox="0 0 700 450"><rect x="0" y="0" width="700" height="450" style="fill: rgb(255, 255, 255); fill-opacity: 1;"/><defs id="defs-16f927"><g class="clips"><clipPath id="clip16f927xyplot" class="plotclip"><rect width="580" height="330"/></clipPath><clipPath class="axesclip" id="clip16f927x"><rect x="60" y="0" width="580" height="450"/></clipPath><clipPath class="axesclip" id="clip16f927y"><rect x="0" y="60" width="700" height="330"/></clipPath><clipPath class="axesclip" id="clip16f927xy"><rect x="60" y="60" width="580" height="330"/></clipPath></g><g class="gradients"/></defs><g class="bglayer"/><g class="layer-below"><g class="imagelayer"/><g class="shapelayer"/></g><g class="cartesianlayer"><g class="subplot xy"><g class="layer-subplot"><g class="shapelayer"/><g class="imagelayer"/></g><g class="gridlayer"><g class="x"><path class="xgrid crisp" transform="translate(163.37,0)" d="M0,60v330" style="stroke: rgb(238, 238, 238); stroke-opacity: 1; stroke-width: 1px;"/><path class="xgrid crisp" transform="translate(266.74,0)" d="M0,60v330" style="stroke: rgb(238, 238, 238); stroke-opacity: 1; stroke-width: 1px;"/><path class="xgrid crisp" transform="translate(370.11,0)" d="M0,60v330" style="stroke: rgb(238, 238, 238); stroke-opacity: 1; stroke-width: 1px;"/><path class="xgrid crisp" transform="translate(473.47,0)" d="M0,60v330" style="stroke: rgb(238, 238, 238); stroke-opacity: 1; stroke-width: 1px;"/><path class="xgrid crisp" transform="translate(576.84,0)" d="M0,60v330" style="stroke: rgb(238, 238, 238); stroke-opacity: 1; stroke-width: 1px;"/></g><g class="y"><path class="ygrid crisp" transform="translate(0,322.69)" d="M60,0h580" style="stroke: rgb(238, 238, 238); stroke-opacity: 1; stroke-width: 1px;"/><path class="ygrid crisp" transform="translate(0,254.05)" d="M60,0h580" style="stroke: rgb(238, 238, 238); stroke-opacity: 1; stroke-width: 1px;"/><path class="ygrid crisp" transform="translate(0,185.4)" d="M60,0h580" style="stroke: rgb(238, 238, 238); stroke-opacity: 1; stroke-width: 1px;"/><path class="ygrid crisp" transform="translate(0,116.75)" d="M60,0h580" style="stroke: rgb(238, 238, 238); stroke-opacity: 1; stroke-width: 1px;"/></g></g><g class="zerolinelayer"><path class="xzl zl crisp" transform="translate(60,0)" d="M0,60v330" style="stroke: rgb(68, 68, 68); stroke-opacity: 1; stroke-width: 1px;"/></g><path class="xlines-below"/><path class="ylines-below"/><g class="overlines-below"/><g class="xaxislayer-below"/><g class="yaxislayer-below"/><g class="overaxes-below"/><g class="plot" transform="translate(60, 60)" clip-path="url(#clip16f927xyplot)"><g class="scatterlayer mlayer"><g class="trace scatter tracec96b91" style="stroke-miterlimit: 2; opacity: 1;"><g class="fills"/><g class="errorbars"/><g class="lines"><path class="js-line" style="vector-effect: non-scaling-stroke; fill: none; stroke: rgb(31, 119, 180); stroke-opacity: 1; stroke-width: 2px; opacity: 1;" d="M0,126.29L0.62,102.66L0.83,177.15L0.93,170.3L1.14,195.75L1.55,82.34L1.65,163.18L1.76,221.04L1.86,67.81L2.17,226.59L2.48,116.79L2.58,127.42L2.89,102.89L3,208.48L3.2,140.79L3.31,100.05L3.41,85.94L3.51,140.12L3.62,174.77L4.03,206.43L4.44,55.15L4.55,142.34L4.65,123.79L5.07,175.81L5.27,140.93L5.38,146.4L5.69,97.07L6.2,202.9L6.31,90.16L6.62,76.95L7.13,198.64L7.24,160.2L7.55,229.79L7.86,194.18L7.96,122.17L8.17,215.47L8.27,112.63L8.58,219.73L8.89,86.99L8.99,108.57L9.1,102.09L9.3,214.64L9.61,64.7L9.92,148.59L10.03,186.51L10.54,226.43L10.85,123.94L10.96,171.48L11.16,196.46L11.27,132.21L11.37,201.78L11.58,59.48L11.89,143.74L11.99,94.96L12.51,87.75L12.71,176.09L12.82,146.03L12.92,145.19L13.02,77.28L13.23,185.85L13.85,154.92L13.95,173.81L14.06,171.87L14.16,111.81L14.26,239.28L14.57,50.7L14.89,121.49L14.99,143.31L15.2,173.48L15.3,116.4L15.4,245.49L16.13,61.89L16.23,187.17L16.44,207.41L16.54,146.8L16.95,150.84L17.06,200.98L17.37,207.56L17.78,55.97L17.88,151.01L18.3,189.84L18.4,168.6L18.5,120.98L18.71,216.89L19.02,16.5L19.23,210.91L19.33,140.56L19.85,176.2L19.95,124.39L20.05,127.19L20.26,55.23L20.47,186.02L20.98,168.42L21.09,189.24L21.19,192.06L21.29,155.3L21.71,190.56L21.91,136.66L22.02,188.7L22.12,159.64L22.22,89.9L22.43,196.71L22.84,154.56L22.95,203.29L23.05,129.14L23.36,210.64L23.67,150.8L23.77,162.77L23.88,143.18L23.98,243.02L24.39,163.69L24.5,193.42L24.6,189.39L24.81,209.58L24.91,212.38L25.02,208.63L25.12,235.01L25.43,239.26L25.84,136.08L25.95,193.21L26.05,224.68L26.26,235.25L26.46,131.8L26.77,213.52L26.88,187.33L27.19,222.99L27.5,114.21L27.6,224.43L28.22,108.64L28.43,180.51L28.53,196.33L28.94,215.95L29.05,138.05L29.15,190.77L29.25,221.22L29.46,224.3L29.87,187.89L29.98,207.68L30.08,236.78L30.39,134.69L30.7,254.03L30.8,201.1L30.91,248.62L31.42,178L31.73,187.18L31.84,186.35L31.94,228.52L32.25,117.44L32.46,184.68L32.56,165.49L32.66,224.16L33.18,170.68L33.28,93.79L33.49,243.04L34.01,228.67L34.11,160.92L34.21,175.53L34.32,76.36L35.25,214.29L35.35,202.52L35.56,233.33L35.87,164.73L35.97,221.61L36.18,177.17L36.39,242.63L36.59,234.03L36.7,153.7L37.01,235.9L37.52,221.17L37.63,197.43L38.04,255.97L38.25,168.71L38.35,204.9L38.45,212.06L38.66,225.33L38.76,212.61L38.87,177.04L39.38,233.14L39.69,220.72L39.8,176.11L40.31,223.63L40.52,170.34L40.62,202.17L40.83,158.2L41.55,238.2L41.66,173.48L41.97,250.96L42.48,223.99L42.59,256.91L42.9,189.02L43.41,232.29L43.52,227.61L43.72,242.77L44.45,148.53L44.55,213.19L44.76,251.14L45.07,194.06L45.17,161.79L45.28,258.71L46,237.01L46.1,243.36L46.21,253.41L46.31,174.27L46.62,151.32L46.72,236.26L46.93,230.05L47.03,149L47.76,241.72L47.86,236.17L47.96,172.2L48.38,254.81L48.69,211.67L48.79,215.05L49.1,192.68L49.31,253.09L49.51,228.07L49.62,179.39L50.03,249.1L50.44,230.41L50.55,215.39L50.65,252.02L50.86,152.14L51.27,230.69L51.37,226.15L51.89,237.63L52.1,204.24L52.2,244.2L52.3,144.8L52.92,210.89L53.03,214.77L53.34,237.4L53.75,147.27L53.85,223.47L54.06,248.92L54.17,205.38L54.48,256.69L54.58,204.87L54.99,247.42L55.1,238.65L55.41,244.85L55.92,196.76L56.03,239.18L56.34,254.96L56.44,171.06L56.54,160.45L56.65,184.97L56.75,241.67L56.96,269.94L57.06,247.03L57.16,227.54L57.68,273.72L57.78,226.28L57.89,229.16L57.99,213.57L58.09,252.67L58.4,267.99L58.51,227.79L58.82,257.49L59.02,191.3L59.13,241.35L59.23,202.69L59.44,253.86L59.75,252.33L59.85,195.01L60.57,264.55L60.68,245.2L60.78,170.8L61.3,263.45L61.61,235.89L61.71,248.09L62.23,200.11L62.33,226.16L62.43,253.19L63.05,204.51L63.16,242.57L63.26,257.1L63.36,169.16L63.78,261.86L63.99,225.53L64.09,235.51L64.3,215.42L64.5,237.08L64.71,226.49L64.81,248.76L64.92,196.78L65.12,256.75L65.54,247.46L65.64,263.24L65.85,268.35L66.05,159.78L66.36,247.09L66.47,252.92L66.57,257.32L66.67,221.78L66.98,215.07L67.29,267.68L67.5,262.86L67.6,201.73L68.22,270.81L68.33,199.02L68.84,261.69L69.05,257.55L69.15,156.41L69.46,258.83L69.98,251.66L70.08,205.42L70.39,256.06L70.7,231.26L70.81,191.46L71.53,262.75L71.63,219.77L72.15,179.1L72.36,259.28L72.46,235.56L72.56,232.94L72.67,266.38L73.49,197.09L73.6,236.41L73.81,265.36L73.91,220.27L74.01,221.95L74.12,260.09L74.43,200.48L74.74,260.11L74.94,213.64L75.05,263.1L75.15,276.42L75.36,221.47L75.77,272.56L75.87,254.33L76.08,275.22L76.39,201.96L76.49,274.75L76.8,172.53L76.91,233.38L77.01,235.28L77.42,254.59L77.63,227.99L77.73,246.87L77.84,210.66L78.66,274.06L78.77,272.07L78.87,247.25L79.39,271.73L79.49,193.95L79.59,240.68L79.7,238.81L79.8,271.13L80.11,230.26L80.52,269.6L80.63,196.62L81.04,265.52L81.35,232.83L81.45,217.79L82.07,262.47L82.18,241.9L82.28,239.66L82.59,203.05L82.9,265.63L83,213.43L83.42,273.64L83.63,271.25L83.73,188.71L84.14,279.05L84.45,256.56L84.56,238.64L85.38,274.43L85.49,251.23L85.59,276.76L85.69,216.31L86.11,251.35L86.21,217.25L86.62,277L87.04,254.89L87.14,256.76L87.35,264.42L88.07,190.21L88.17,219.5L88.38,272.26L88.69,197.94L88.9,256.71L89,214.19L89.52,176.69L89.72,245.36L89.83,231.69L90.14,269.37L90.24,266.08L90.34,152.71L91.07,272.25L91.17,261.92L91.27,265.43L91.48,267.11L91.69,207.86L91.89,242.1L92,279.16L92.1,158.67L92.82,182.43L92.93,255.06L93.34,279.1L93.76,187.33L93.86,229.04L94.27,268.97L94.58,265.47L94.69,235.96L95,226.31L95.2,260.92L95.41,254.15L95.51,251.1L96.03,251.31L96.13,199.51L96.24,263.95L96.34,186.08L96.75,270.17L96.96,255.03L97.06,282.16L97.48,206.52L97.68,279.41L97.79,271.32L98.3,218.72L98.51,246.92L98.61,275.42L99.13,215.06L99.44,222.7L99.54,251.48L99.65,251.35L99.75,234.35L99.96,279.24L100.06,219.87L100.27,260.45L100.37,215.06L100.47,214.74L100.58,250.95L100.68,265.88L101.09,222.96L101.3,249.7L101.4,250.43L101.51,240.06L101.61,272.35L102.13,243.3L102.23,254.28L102.54,241.26L102.75,254.94L102.85,247.45L102.95,266.68L103.16,209.66L103.68,246.97L103.78,254.42L103.99,283.01L104.3,247.59L104.4,276.79L104.51,226.32L105.23,279.66L105.33,230.41L105.75,272.45L106.26,268.8L106.37,193.96L107.09,275.86L107.19,224.66L107.71,281.87L108.12,264.09L108.23,276.02L108.85,213.1L108.95,220.45L109.05,268.6L109.26,274.17L109.57,236.57L109.98,245.53L110.09,260.58L110.29,257.87L110.4,269.92L110.6,271.18L110.71,260.35L110.81,263.91L110.91,253.8L111.02,233.42L111.22,287.57L111.74,269.36L111.84,248.37L112.15,235.94L112.36,285.89L112.57,279.65L112.67,246.24L112.77,247.53L112.88,292.15L113.6,218.2L113.71,252.95L113.81,261.74L114.02,255.53L114.12,292.21L115.05,232.76L115.15,262.46L115.26,254.22L115.36,274.62L115.46,209.43L115.88,264.64L116.19,235.48L116.29,228.76L116.91,282.72L117.01,203.83L117.32,279.88L117.84,248.1L117.94,259.35L118.05,255.21L118.15,221.24L118.25,224.04L118.36,252.18L118.77,235.44L118.87,281.92L118.98,273.41L119.08,229.29L119.18,225.12L119.29,257.1L119.39,277.43L119.49,224.58L119.91,265.19L120.01,245.65L120.42,237.33L120.53,277.76L120.63,230.34L121.56,288.84L121.66,277.48L122.28,231.83L122.59,252.79L122.7,268.72L122.91,223.93L123.22,275.97L123.32,292.41L124.15,208.46L124.25,230.13L124.46,268.15L124.97,259.56L125.08,233.25L125.18,232.35L125.28,220.28L125.49,272.71L125.59,215.93L126.11,263.75L126.21,256.02L126.32,258.82L126.42,282.77L126.94,233.49L127.25,256.29L127.35,259L127.56,255.82L127.87,276.92L127.97,230.86L128.18,226.56L128.28,265.09L128.59,241.57L128.69,229.91L129.42,270.48L129.52,268.28L129.62,259.35L129.73,253.74L129.93,274.69L130.04,276.37L130.45,285.38L130.86,207.4L131.17,231.65L131.28,264.23L131.48,211.42L131.9,244.42L132,243.16L132.1,239.23L132.21,262.31L132.31,273.7L132.62,284.44L132.73,241L133.04,258.78L133.14,269.27L133.66,221.71L133.76,274.66L134.07,234.06L134.17,273.46L134.38,271.31L134.48,265.09L134.59,266.8L134.79,263.52L134.9,279.95L135.1,236.54L135.52,281.25L135.62,261.89L135.72,264.89L135.83,253.29L136.24,280.34L136.34,269.48L136.45,280.15L136.65,287.24L137.17,216.66L137.27,245.59L137.38,254.17L137.89,252.46L138,275.05L138.1,244.08L138.31,288.23L138.51,216.47L138.93,264L139.03,274.98L139.44,287.77L139.65,242L139.75,245.6L139.86,264.99L139.96,240.47L140.48,287.82L140.58,280.93L141.3,157.27L141.41,225.28L141.51,256.39L142.03,266.07L142.13,205.52L142.23,240.16L142.34,258.08L142.65,282.01L142.75,253.65L142.86,214.01L143.68,281.2L143.79,252.15L144.3,245.9L144.51,284.73L144.61,268.42L144.82,284.99L145.13,247.37L145.34,248.33L145.44,274.05L145.54,249.25L146.06,278.59L146.16,275.05L146.27,261.29L146.47,249.6L146.58,282.5L146.78,281.15L146.89,239L147.4,215.08L147.71,278.18L147.82,262.77L148.02,248.6L148.13,252.84L148.23,278.92L148.33,206.38L148.44,279.12L148.95,257.69L149.06,274.73L149.16,239.75L149.37,290.09L149.78,272.38L149.88,265.6L149.99,276.16L150.09,192.45L150.3,273.56L150.81,266.24L150.92,243.26L151.12,284.18L151.64,282.93L151.74,261.74L151.85,231.72L152.16,282.76L152.36,264.2L152.47,279.74L152.78,243.63L153.19,269.7L153.3,282.59L153.4,289.94L153.5,239.14L153.61,237.13L153.71,244.38L153.81,262.35L154.23,250.41L154.64,292.56L154.74,279.9L154.85,286.52L155.05,262.96L155.16,275.32L155.26,258.81L155.57,274.42L155.67,232.28L155.98,242.13L156.09,268.32L156.5,274.47L156.6,194.42L156.81,258.87L156.91,273.07L157.12,263.45L157.22,298.45L157.33,229.88L157.53,254.73L157.74,237.25L157.84,274.53L158.05,290.13L158.26,257.32L158.57,266.85L158.67,265.85L158.77,223.57L158.88,285.67L159.39,270.26L159.5,237.68L160.32,290.48L160.43,262.01L160.53,264.11L160.63,290.84L160.74,229.51L161.36,256.24L161.46,255.1L161.56,276.27L161.67,250.9L162.18,263.72L162.29,264.26L162.39,236.04L162.7,285.62L163.01,268.33L163.12,249.98L163.22,246.39L163.32,265.28L163.43,272.38L163.53,280.72L163.63,230.71L163.74,224.35L164.25,284.73L164.46,265.72L164.56,245.45L164.77,288.32L165.08,279.91L165.18,243.04L165.6,279L165.7,254.05L166.32,285.99L166.53,278.26L166.63,271.39L167.04,263.99L167.56,299.6L167.66,277.66L168.28,219.66L168.39,269.36L168.59,278.37L168.8,250.16L168.9,261.82L169.01,292.5L169.52,241.94L169.83,273.82L169.94,278.85L170.14,281.96L170.45,222.73L170.66,277.87L170.76,283.67L170.87,239.32L171.49,286.72L171.59,272.9L172,282.45L172.11,233.63L172.32,245.75L172.42,271.28L172.83,233.73L173.04,289.71L173.25,253.09L173.35,278.97L173.56,287.49L173.66,246.28L174.07,274.15L174.18,277.71L174.28,292.47L174.38,256.53L174.59,274.55L174.69,230L175.21,277.56L175.31,224.55L175.52,267.24L175.62,238.64L175.73,244.33L175.83,242.18L175.93,286.7L176.04,297.71L176.14,250.59L176.35,254.96L176.45,262.37L176.55,249.48L176.86,278.76L176.97,260.54L177.07,287.98L177.48,247.43L177.59,288.85L177.79,280.11L177.9,271.91L178.1,261.99L178.41,299L178.52,273.31L178.62,262.14L178.93,291.76L179.24,246.85L179.34,278.71L179.45,277.91L179.55,293.36L180.07,283.46L180.17,264.01L180.27,251.44L180.58,281.77L180.89,256.43L181,280.19L181.1,293.31L181.2,245.87L181.72,277.69L181.82,274.38L181.93,284.48L182.03,239.98L182.34,271.28L182.45,260.72L182.65,244.17L183.07,290.75L183.17,239.67L184.1,282.3L184.2,204.72L184.93,288.66L185.03,276.95L185.13,278.51L185.24,218.23L185.44,290.41L185.86,281.79L185.96,257.45L186.48,294.85L186.68,252.61L186.79,247.44L187.51,292.96L187.61,247.79L187.72,241.73L187.82,266.28L187.92,197.69L188.23,292.48L188.75,277.15L188.85,283.33L188.96,249.52L189.68,253.16L189.78,269.15L190.09,257.32L190.2,287.69L190.4,277.35L190.51,263.34L190.82,284.23L190.92,273.65L191.02,239.49L191.85,293.37L191.96,282.12L192.16,216.19L192.68,276.74L192.78,291.82L192.89,233.28L193.51,248.76L193.61,257.75L194.23,283.61L194.33,250.77L194.75,281.1L195.16,272.92L195.26,276.39L195.68,228.08L195.99,250.15L196.09,281.05L196.19,245.88L196.81,278.99L196.92,294.04L197.02,258.77L197.64,274.65L197.74,280.53L197.85,283.93L197.95,238.11L198.47,221.9L198.67,286.35L198.78,263.91L198.88,253.09L199.29,282.62L199.6,271.57L199.71,267.81L200.02,257.52L200.22,270.25L200.33,282.62L200.53,236.64L200.64,258.31L200.74,277.31L201.05,250.11L201.15,285.19L201.98,236.85L202.09,281.9L202.19,241.27L202.71,283.6L202.91,241.43L203.02,275.24L203.12,297.93L203.33,253.59L203.64,289.27L203.74,255.68L203.84,251.56L203.95,253.08L204.05,281.61L204.15,284.16L204.26,269.86L204.36,226.86L204.77,286.35L205.19,255.85L205.29,274.39L205.7,290.84L206.12,223.68L206.22,292.69L206.53,258.86L206.94,296.59L207.05,281.7L207.56,298.54L207.87,246.48L207.98,252.78L208.08,287.82L208.29,248.44L208.91,265.42L209.01,262.69L209.11,239.25L209.53,292.54L209.73,253.56L209.84,287.83L210.35,296.63L210.46,236.94L210.56,249.82L210.66,270.03L210.87,248.61L211.18,296.22L211.28,281.91L211.39,242.11L212.01,280.66L212.22,255.47L212.32,258.37L212.42,295.67L212.53,255.71L213.15,293.64L213.25,267.75L213.56,297.5L213.77,264.65L214.08,279.52L214.18,251.23L214.39,299.44L214.49,255.47L214.59,233.61L215.52,297.54L215.63,233.45L215.83,290.67L216.04,228.67L216.45,270.21L216.56,287.22L216.66,284.78L216.76,262.11L217.07,289.76L217.28,240.93L217.38,285.42L217.49,290.05L217.59,222.83L217.69,282.66L218.31,279.75L218.42,269.82L218.52,244.69L218.73,285.53L219.14,274.45L219.24,271.14L219.55,289.77L219.66,250.72L220.07,283.82L220.17,258.57L221.1,288.5L221.21,251.7L221.93,247.43L222.04,298.44L222.14,284.83L222.76,247.76L222.86,263.83L222.97,288.72L223.17,298.11L223.38,235.05L223.48,279.67L223.59,297.52L224.21,239.51L224.41,247.92L224.52,256.04L224.83,287.42L225.03,230.43L225.14,277.35L225.24,291.12L225.34,236.01L225.86,275.63L225.96,270.74L226.17,294.99L226.27,253.48L226.48,267.19L226.58,264.42L226.69,289.6L227.1,262.75L227.2,271.11L227.31,233.07L227.41,285.36L228.03,268.99L228.13,243L228.86,299.52L228.96,287.17L229.06,240.07L229.99,295.39L230.1,267.79L230.3,282.88L230.41,292.11L230.82,238.48L231.24,249.83L231.34,269.2L231.55,217.12L231.75,233.46L231.86,265.19L231.96,289.85L232.27,257L232.48,261.35L232.58,247.73L233.41,287.23L233.51,226.76L234.34,294.61L234.44,271.49L234.75,288.23L234.96,262.02L235.06,272.2L235.16,263.65L235.37,260.65L235.47,287.02L235.68,246.43L235.99,294.46L236.2,266.77L236.3,262.1L236.4,251.33L236.61,297.19L236.82,270.11L236.92,281.4L237.02,239.56L237.64,268.47L237.75,248.99L238.06,295.39L238.16,279.89L238.26,264.96L238.47,295.67L238.68,260.11L239.09,282.09L239.19,277.72L239.3,279.84L239.4,255.69L239.5,295.35L239.61,226.81L240.23,293.96L240.33,280.87L240.64,217.77L240.95,256.65L241.06,286.36L241.16,287.63L241.26,263.58L241.47,282.01L241.68,217.9L241.88,257.7L241.99,274.42L242.3,255.36L242.61,309.81L242.71,288.85L242.81,255.07L242.92,242.38L243.23,287.7L243.33,247.29L243.43,274.23L243.54,298.84L243.85,244.14L243.95,244.7L244.05,237.37L244.26,236.76L244.67,279.43L244.88,254.42L244.98,250.46L245.4,238.5L245.71,290.06L245.81,273.72L245.91,281.54L246.12,282.84L246.33,272.85L246.64,278.28L246.74,285.4L247.46,260.96L247.57,285.73L247.98,299L248.08,257.48L248.29,268.21L248.39,287.33L248.81,289.71L249.22,233.24L249.32,254.24L249.43,287.32L249.84,287.83L249.94,260.6L250.36,260.65L250.46,268.48L250.56,293L251.08,274.05L251.19,248.82L251.81,281.77L252.01,274.55L252.12,258.92L252.32,293.13L252.43,250.91L252.94,287.41L253.05,295.76L253.25,255.4L253.87,267.26L253.98,251.56L254.39,304.83L254.7,265.97L254.8,272.8L255.22,233.56L255.32,286.51L255.53,273.66L255.63,270.23L255.73,295.4L256.15,262.08L256.35,263.11L256.46,289.36L256.66,293.88L256.77,271.15L256.87,290.29L256.97,257.2L257.18,291.16L257.59,280.32L257.7,238.47L257.9,295.43L258.32,276.27L258.42,250.92L258.52,248.69L258.63,285.31L258.73,286.03L258.83,292.45L258.94,291.2L259.04,267.78L259.25,305.9L259.76,275.63L259.87,277.48L259.97,286.71L260.07,247.39L260.28,258.44L260.38,246.48L261.01,293L261.11,273.58L261.21,249.1L261.94,289.52L262.04,253.48L262.14,236.69L262.25,275.98L262.56,274.74L262.66,279.86L263.18,305.87L263.28,257.75L263.38,288.55L263.49,291.94L263.59,267.03L263.9,298.55L264.31,279.35L264.42,285.61L264.93,292.4L265.24,264.9L265.35,288.85L265.45,303.06L265.55,269.45L265.86,288.58L265.97,264.97L266.07,299.25L266.48,259.96L266.79,295.41L266.9,277.25L267.21,262.1L267.52,277.01L267.62,296.16L267.72,255.84L268.34,260.86L268.45,279.94L268.65,277.04L268.76,252.02L269.17,250.18L269.38,296.15L269.58,277.76L269.69,285.9L269.79,290.16L269.89,266.38L270,247.45L270.1,285.66L270.31,243.07L270.72,285.09L270.83,274.42L271.03,279.37L271.14,269.75L271.24,282.98L271.34,239.44L271.76,293.54L271.96,257.6L272.07,288.07L272.38,225.99L272.69,278.28L272.79,286.59L273.1,289.21L273.31,247.94L273.51,265.39L273.62,266.98L273.72,286.34L273.82,250.85L274.34,275.62L274.44,278.21L274.55,302.25L275.06,258.06L275.17,246.63L275.27,300.3L275.89,280.89L275.99,268.3L276.3,302.24L276.51,251.12L276.72,284.07L276.82,280.39L276.92,256.04L277.23,298.19L277.54,282.13L277.65,288.4L277.85,290.8L277.96,231.84L278.47,268.53L278.58,271.54L278.68,293.6L278.99,247.57L279.4,289.23L279.51,278.39L279.61,281.05L279.71,261.9L279.82,236.57L279.92,297.85L280.23,269.2L280.34,294.12L280.44,262.13L280.96,295.44L281.06,292.66L281.16,295.77L281.47,302.66L281.78,225.33L281.99,276.29L282.09,271.93L282.2,291.64L282.71,273.7L282.82,248.97L283.23,284.65L283.64,282.46L283.75,282.49L283.85,298.92L283.95,245.13L284.37,286.84L284.47,267.42L284.78,256.79L285.3,302.2L285.4,273.13L285.71,291.43L285.92,272.62L286.02,277.75L286.12,269.09L286.23,287.87L286.74,250.88L286.85,283.15L286.95,247.52L287.36,246.15L287.67,292.43L287.78,239.48L287.88,292.05L288.6,284.55L288.71,283.41L289.12,302.34L289.22,277.82L289.33,247.57L289.53,285.9L290.16,282.91L290.26,290.17L290.47,260.52L290.88,301.3L290.98,267.13L291.09,282.93L291.19,298.82L291.6,265.55L291.71,254.96L291.91,299.08L292.12,245.75L292.43,279.68L292.53,268.46L292.64,269.76L292.84,269.18L292.95,299.87L293.57,239.86L293.67,272.04L293.77,291.33L293.98,262.79L294.39,295.53L294.6,265.25L294.7,292.65L295.12,254.67L295.32,280.38L295.43,286.48L295.53,235.85L296.15,294.26L296.25,288.78L296.36,219.8L296.67,295.64L296.98,287.87L297.08,260.83L297.39,256.72L297.49,285.9L297.8,274.27L297.91,270.2L298.01,295.65L298.32,245.52L298.63,276.54L298.73,261.82L299.25,253.91L299.66,285.27L299.77,269.33L300.29,296.64L300.49,292.18L300.6,282.14L300.8,293.03L301.11,272.4L301.22,281.68L301.32,279.03L301.53,264.29L301.94,291.51L302.04,276.71L302.15,285.35L302.35,294.08L302.46,263.4L302.87,278.95L302.97,295.1L303.18,253.44L303.59,268.05L303.7,297.04L304.32,244.26L304.42,259.91L304.52,287.72L304.73,287.28L304.83,301.62L304.94,269.59L305.04,270.84L305.14,292.39L305.35,295.19L305.87,261L305.97,263.96L306.07,280.8L306.18,297.12L306.28,258.36L306.8,281.69L306.9,290.53L307,289.73L307.11,280.17L307.21,280.38L307.31,256.73L307.73,288.21L308.14,276.69L308.24,270.59L308.76,292.09L308.86,261.46L309.07,287.61L309.17,291.16L309.59,253.78L309.69,183.48L310.11,264.05L310.52,247.62L310.62,264.81L310.73,284.87L311.35,280.86L311.45,259.62L311.55,297.85L312.07,272.65L312.17,223.53L312.28,288.79L312.9,273.85L313,268.35L313.31,259.5L313.52,299.02L313.62,268.58L313.72,246.63L313.93,299.61L314.34,243.9L314.55,291.26L314.65,261.28L314.96,259.61L315.27,293.3L315.38,280.71L315.48,279.1L315.69,287.98L315.79,256.05L316,271.08L316.1,293.83L316.62,251.29L316.72,288.91L316.93,261.78L317.03,295.11L317.44,279.69L317.55,270.37L317.86,291.92L318.17,262.51L318.27,267.42L318.58,300.24L318.89,285.13L318.99,251.92L319.3,294.64L319.41,243.5L319.72,285.87L319.82,243.22L320.34,295.48L320.55,276.79L320.65,262.07L321.06,254.12L321.27,290.94L321.37,276.95L321.48,252.9L321.68,247.81L321.79,277.91L322.2,276.92L322.3,252.03L322.41,230.66L322.82,294.38L322.92,289.48L323.34,294.6L323.54,277.72L323.65,287.18L323.75,288.54L324.27,267.82L324.37,301.75L324.47,296.53L324.89,258.82L325.2,286.39L325.3,285.26L325.4,282.76L325.51,291.58L325.61,257.08L325.92,255.74L326.23,295.51L326.44,290.61L326.54,278.49L326.64,277.93L326.75,262.43L327.47,305.89L327.57,284.7L327.68,297.98L327.78,266.17L328.5,269.91L328.61,275.43L328.81,252.39L328.92,298.35L329.02,241.88L329.64,289L329.75,259.21L329.85,253.39L329.95,288.61L330.16,274.89L330.26,278.11L330.37,268.67L330.47,295.7L330.88,282.41L330.99,281.22L331.19,247.02L331.5,305.74L331.71,289.34L331.81,276.79L331.92,263.39L332.33,294.58L332.43,265.88L332.54,290.99L333.26,260.37L333.36,275.47L333.47,292.49L333.67,282.24L333.78,257.22L333.98,299.68L334.6,291.34L334.71,259.64L335.53,299.39L335.64,258.01L335.95,302.91L336.46,282.93L336.57,271.54L337.08,258.9L337.29,292.19L337.39,266.61L337.5,303.97L337.7,259.89L338.22,302.13L338.32,286.23L338.43,304.95L338.53,250.05L339.05,287.46L339.15,277.8L339.26,263.63L339.67,287.75L339.88,272.61L339.98,294.55L340.29,264.7L340.7,283.07L340.81,283.71L340.91,283.21L341.01,266.99L341.22,260.49L341.32,295.65L341.84,285.7L341.94,294.11L342.36,257.59L342.46,295.89L342.56,266.82L342.77,297.32L343.18,278.29L343.29,283.82L343.49,264.25L343.6,275.78L343.7,293.56L344.32,117.26L344.53,127.69L344.63,213.02L344.73,215.65L344.84,209.82L344.94,194.9L345.56,275.31L345.77,247.74L345.87,254.29L345.97,281.68L346.18,249.68L346.59,269.7L346.7,275.21L346.9,228.16L347.21,285.6L347.42,269.39L347.52,284.35L347.73,289.31L348.25,226.37L348.35,260.68L348.45,284.74L348.97,290.57L349.08,268.8L349.18,272.84L349.28,286.74L349.8,288.81L350.11,256.52L350.21,298.08L350.52,251.61L350.94,275.45L351.04,289.47L351.35,232.67L351.76,270.91L351.87,275.19L352.07,309.63L352.28,269.04L352.69,287.98L352.8,292.11L353.52,256.22L353.62,272.13L353.73,289.94L353.93,291.9L354.24,248.11L354.45,255.12L354.55,293.51L354.66,255.49L355.28,270.13L355.38,282.48L355.69,257.34L355.79,282.06L356,283.81L356.31,266.47L356.52,277.5L356.62,279.05L356.93,294.36L357.03,263.57L357.34,282.6L357.45,265.55L357.55,258.93L357.65,291.48L357.76,296.37L358.48,252.44L358.58,295.92L359.21,306.21L359.31,251.3L359.41,275.3L359.83,264.59L360.14,306.43L360.24,288.59L360.34,297.66L360.45,298.06L360.55,273.74L360.86,249.68L361.07,291.52L361.27,261.61L361.38,288.58L361.48,293.19L361.58,292.44L361.69,258.86L361.89,260.95L362,291.29L362.51,254.87L362.82,284.64L362.93,285.62L363.13,289.2L363.24,287.7L363.34,268.56L363.65,290.01L363.86,268.03L364.17,289.37L364.27,276.48L364.58,274.6L364.99,310.39L365.1,289.42L365.2,278.78L365.41,258.49L365.61,310.45L365.92,288.67L366.03,276.77L366.13,293.32L366.65,259.7L366.75,269.61L366.96,262.87L367.06,298.66L367.58,293.18L367.68,267.17L367.99,291.94L368.09,256.94L368.4,270.63L368.51,261.26L369.13,292.38L369.23,276.14L369.34,270.37L369.75,289.7L369.85,252.29L370.06,273.64L370.16,245.42L370.47,285.18L370.99,279.04L371.09,290.94L371.2,290.6L371.3,284.35L371.4,302.59L371.71,273.14L372.02,290.54L372.13,244.8L372.64,309.44L372.95,303.71L373.06,288.64L373.26,251.89L373.47,293.52L373.57,264.08L373.68,282.65L373.78,295.72L374.19,271L374.5,292.64L374.61,281.88L375.12,255.76L375.23,306.71L375.33,262.19L375.74,239.54L376.26,301.21L376.36,299.4L376.47,289.6L376.78,302.38L376.98,264.91L377.19,286.45L377.29,272.64L377.5,279.61L377.71,262.61L377.81,298.07L378.33,238.37L378.54,262.71L378.64,287.76L378.74,247L379.36,265.66L379.47,291.17L379.88,294.25L380.19,259.07L380.29,268.69L380.4,292.53L380.6,287.12L380.71,290.66L380.81,265.06L381.33,289.36L381.43,253.26L381.64,287.99L381.74,276.51L382.05,265.6L382.26,308.44L382.57,295.89L382.67,300.2L382.77,255.83L383.39,286.71L383.5,293.41L383.91,281.64L384.01,304.73L384.12,283.02L384.22,291.36L384.53,259.37L384.84,287.1L384.94,278.93L385.05,282.63L385.15,256.08L385.56,294.97L385.87,249.66L385.98,289.77L386.08,279.84L386.18,259.95L386.7,292.22L386.8,285.83L387.01,253.6L387.11,285.27L387.22,271.95L387.32,289.91L387.73,272.04L387.84,293.23L388.04,288.13L388.25,303.7L388.36,282.76L388.46,261.85L389.08,287.96L389.18,290.31L389.29,264.1L389.7,295.76L389.91,293.9L390.01,272.38L390.11,307.56L390.73,276.51L390.84,285.98L391.15,242.59L391.46,265.22L391.56,272.76L391.97,254.24L392.28,295.07L392.39,282.28L392.49,263.02L392.59,296.03L393.01,294.05L393.11,296.26L393.73,270.76L393.94,282.91L394.04,300.15L394.66,253.28L394.76,281.09L394.87,290.84L395.49,297.41L395.59,256.28L395.69,293.73L396.11,297.48L396.42,254.51L396.52,289.74L396.62,244.87L397.14,294.44L397.24,286.11L397.35,270.35L397.66,293.08L397.97,280.87L398.07,250.01L398.28,306.9L398.9,289.49L399,273.49L399.11,250.13L399.62,286.54L399.73,287.78L399.83,297.08L400.04,282.73L400.24,290.26L400.35,264.8L401.07,308.32L401.17,282.53L401.38,300.85L401.69,271.98L401.79,290.14L401.9,273.44L402,267.7L402.31,286.89L402.41,291.96L402.93,304.13L403.03,286.25L403.14,271.53L403.24,267.91L403.34,281.39L403.45,296.28L403.65,300.76L404.07,268.5L404.38,283.26L404.48,292.04L405.31,252.48L405.41,285.22L405.72,259.32L405.82,305.67L406.13,298.56L406.24,294.67L406.55,306.45L406.75,245.34L406.96,292.23L407.06,272.21L407.17,271.09L407.27,293.18L407.58,299.65L407.79,281.13L407.89,299.29L408.2,250.81L408.72,258.74L408.82,274.72L408.93,261.65L409.03,292.59L409.24,264.85L409.34,306.88L409.86,265.79L410.17,273.56L410.27,279.34L410.68,265.18L410.99,306.87L411.1,272.75L411.2,302.26L411.41,257.29L411.82,295.97L411.92,291.45L412.03,295.45L412.13,258.7L412.54,298.5L412.65,239.26L412.96,284.89L413.06,276.1L413.16,303.83L413.78,290.73L413.89,280.15L414.09,298.19L414.2,282.27L414.3,273.99L414.82,299.75L415.02,295.64L415.13,246.01L415.54,303.8L416.06,293.73L416.16,276.87L416.37,250.96L416.78,302.3L416.99,300.76L417.09,277.4L417.3,292.36L417.61,290.53L417.71,264.14L417.92,234.18L418.02,273.92L418.13,258.56L418.23,296.56L418.95,272.63L419.06,298.65L419.88,269.28L419.99,275.46L420.09,302.75L420.4,272.61L420.81,295.96L420.92,275.52L421.02,248.2L421.23,297.2L421.54,277.96L421.64,286.86L422.05,274.13L422.16,293.49L422.26,280.12L422.36,279.27L422.47,278.19L422.57,281.78L422.67,266.94L423.09,302.01L423.6,300.6L423.71,263.76L424.43,303.24L424.53,267.93L424.74,297.64L425.46,296.61L425.57,221.01L425.77,302.81L426.39,262.76L426.5,263.51L427.01,296.51L427.32,285.53L427.43,282.29L427.64,263.16L427.74,286.71L427.84,291.82L427.95,289.45L428.05,262.87L428.26,294.45L428.67,286.23L428.77,274.23L429.19,259.34L429.5,299.69L429.6,276.44L429.81,270.3L430.53,294.23L430.63,291.25L430.74,277.09L430.94,296.49L431.15,257.66L431.25,266.71L431.36,260.21L431.87,296.67L432.08,282.14L432.18,256.71L432.6,296.36L432.91,274.95L433.01,264.63L433.22,303.51L433.42,263.61L433.73,298.25L433.84,277.58L434.15,269.43L434.35,296.77L434.66,294.03L434.77,278.11L435.28,286.7L435.39,268.52L435.49,259.16L435.7,298.91L435.8,268.13L435.9,297.47L436.11,301.69L436.73,276.54L436.83,290.01L436.94,295.39L437.14,284.03L437.25,260.84L437.56,292.25L437.66,238.95L438.08,282.65L438.18,266.59L439.01,293.41L439.11,270.67L439.21,255.97L439.42,290.6L439.73,279.96L439.83,283.2L440.04,306.41L440.14,256.72L440.45,280.62L440.56,290.88L440.76,291.37L440.87,246.57L441.18,258.45L441.28,289.9L441.59,299.86L441.8,265.83L442,286.02L442.11,295.33L442.42,268.97L442.93,281.09L443.04,278.97L443.24,271.03L443.45,301.55L443.86,288.5L443.97,284.9L444.07,298.72L444.59,268.8L444.79,298.45L444.9,275.17L445.62,294.17L445.72,262.22L446.34,296.9L446.55,290.59L446.65,280.77L446.86,265.72L447.27,295.35L447.38,295.24L447.48,236.01L448.21,296.67L448.31,293.16L448.41,293.83L448.83,301.39L449.03,259.7L449.14,262.73L449.24,296.37L449.76,301.5L449.86,270.01L449.96,270.38L450.07,282.19L450.17,280.77L450.27,301.07L450.48,305.99L450.79,265.02L451.2,266.84L451.31,284.96L451.82,269.8L452.03,300.48L452.13,268.79L452.34,301.22L452.86,281.63L452.96,271.53L453.17,294.65L453.37,268.5L453.68,286.5L453.79,275.07L453.99,309.65L454.3,294.82L454.41,280L454.51,261.13L455.03,302.32L455.13,300.18L455.23,299.5L455.34,300.98L455.44,278.17L455.65,266.73L456.06,291.87L456.16,269.6L456.89,299.28L456.99,274.87L457.41,274.31L457.61,310.25L457.72,288.4L457.82,292.26L457.92,291.04L458.03,297.8L458.13,292.45L458.23,271.04L458.75,291.38L458.85,288.58L458.96,267.87L459.47,254.01L459.58,290.7L459.78,285.8L459.89,265.76L460.4,263.71L460.51,303.32L460.61,272.07L460.71,266.43L461.02,231.63L461.44,293.16L461.54,290.14L461.64,282.71L462.06,305.5L462.16,244.35L462.37,289.75L462.47,255.31L462.78,300.94L463.19,282.86L463.3,270.75L463.61,265.95L463.71,297.67L463.92,278.83L464.02,263.72L464.43,294.82L464.85,292.27L464.95,284.15L465.05,284.6L465.16,291.33L465.67,246.44L465.78,305.18L465.98,262.26L466.09,290.64L466.19,292.41L466.29,282.05L466.4,291.28L466.5,280.09L466.6,305.54L466.91,263.91L467.23,288.53L467.33,291.61L467.85,301.45L467.95,275.06L468.16,277.5L468.26,299.11L468.57,251.89L468.78,284.04L468.88,300.71L468.98,307.98L469.19,278.13L469.29,273.17L470.02,300.3L470.12,261.07L470.22,252.59L470.43,291.87L470.53,290.09L470.64,303.98L471.05,266.86L471.15,298.94L471.26,275.12L471.57,244.07L472.08,294.59L472.19,295.74L472.7,270.02L472.81,297.89L472.91,299.84L473.01,283.26L473.32,303.65L473.63,283.42L473.74,273.9L473.94,300.66L474.56,290.79L474.67,288.78L474.77,281.42L475.08,298.51L475.39,290.07L475.49,285.47L475.7,288.04L475.8,276.87L476.22,248.67L476.63,308.66L476.73,288.28L476.84,301.38L477.05,261.99L477.25,293.13L477.36,268.45L477.98,296.54L478.08,279.34L478.18,265.65L478.29,259.19L478.39,302.91L479.01,272.29L479.11,275.68L479.22,302.37L479.84,277.6L480.04,278.3L480.15,282.88L480.25,265.97L480.35,304.83L480.87,276.1L480.97,288.53L481.28,251.46L481.49,295.5L481.59,277.59L481.7,291.31L481.9,274.62L482.01,300.69L482.32,310.75L482.83,263.36L483.04,270.1L483.14,289.84L483.25,291.75L483.35,275.14L483.66,300.17L484.07,295.5L484.18,276.5L484.38,260.21L484.49,304.81L484.9,299.65L485,270.1L485.21,305.59L485.31,279.34L485.52,292.74L485.62,287.12L485.73,268.85L485.83,268.4L485.93,288.85L486.35,290.92L486.66,267.32L486.76,285.28L487.07,287.38L487.38,262.23L487.49,295.24L487.59,278.54L487.9,304.67L488.21,294.42L488.31,289.56L488.83,289.01L488.93,299.87L489.04,299.67L489.14,292.29L489.35,307.5L489.45,268.62L489.86,283.37L489.97,297.82L490.59,253.55L490.69,300.61L490.79,274.83L490.9,289.5L491,302.36L491.41,272.97L491.52,272.61L491.93,311.39L492.34,291.26L492.45,289.75L492.76,297.43L493.07,276.74L493.17,287.04L493.27,298.38L493.69,253.65L494,282.49L494.1,292.79L494.51,281.58L494.62,305.14L494.72,288.43L494.82,278.4L495.65,304.91L495.75,282.28L495.86,290.08L496.17,259.44L496.27,278.77L496.37,264.74L497.2,297.75L497.31,279.72L497.51,298.2L498.03,281.88L498.13,281.15L498.24,310.44L498.65,255.59L498.86,277.45L498.96,285.99L499.17,282.04L499.27,289.45L499.37,300.06L499.48,299.57L499.58,279.7L499.68,265.31L500.1,307L500.2,292.29L500.3,309.57L500.41,272.09L501.03,291.02L501.13,296.22L501.23,294.84L501.34,272.93L501.54,253.47L502.16,301.65L502.27,292.89L502.37,297.1L502.47,294.47L502.58,269.12L502.78,263.45L503.09,307.81L503.51,284.53L503.61,276.06L503.71,270.79L503.82,295.75L503.92,305.93L504.23,236.82L504.75,280.64L504.85,266.24L505.37,297.98L505.57,286.68L505.68,256.87L506.4,306.61L506.61,305.52L506.71,294.76L506.92,261.4L507.33,288.84L507.44,304.3L507.64,272.85L507.85,295.43L507.95,300.72L508.57,308.54L508.68,260.83L508.88,275.22L508.99,286.03L509.09,267.68L509.4,297.29L509.71,283.82L509.81,307.57L510.12,267.13L510.64,269.66L510.74,292.29L510.85,288.63L510.95,297.68L511.05,258.68L511.88,303.35L511.98,291.49L512.09,260.16L512.6,306.05L512.71,305.41L513.43,252.88L513.64,276.89L513.74,291.81L513.95,252.58L514.05,299.84L514.36,258.63L514.46,279.68L514.57,279.02L514.67,293.58L515.19,272.27L515.39,287.4L515.5,287.89L515.91,297.38L516.22,196.59L516.33,168.21L516.53,147.75L516.64,171.88L516.74,192.59L517.05,176L517.67,296.95L517.77,246.55L518.39,292.07L518.5,289.1L518.6,263.95L518.81,283.01L519.01,279.75L519.12,252.92L519.94,300.93L520.05,301.28L520.36,262.63L520.67,304.99L520.77,292.37L520.87,298.68L520.98,305.31L521.29,279.98L521.39,293.25L521.49,260.89L522.11,298.98L522.42,296.4L522.53,291.74L522.73,277.26L522.84,287.56L522.94,294.71L523.04,261.11L523.66,288.61L523.77,279.93L524.08,296.02L524.49,276.86L524.59,281.23L524.8,270.69L525.01,310.7L525.32,300.27L525.42,242.33L526.25,303.13L526.35,298.45L526.66,270.67L526.77,306.03L527.28,247.68L527.59,266.73L527.7,288.04L527.8,252.54L528.32,286.83L528.42,305.13L528.73,259.63L529.04,297.58L529.14,298.34L529.56,269.52L529.87,293.14L529.97,306.72L530.28,272.5L530.69,286.43L530.8,300.24L531.42,263.89L531.62,269.5L531.73,292.48L532.66,277.58L532.76,287.97L533.07,292.53L533.17,277.64L533.38,286.44L533.48,292.38L533.69,250.12L534,297.31L534.21,272.23L534.31,293.24L534.41,292.61L534.52,295.31L534.62,297.53L535.34,263.28L535.45,270.32L535.55,288.34L535.86,307.68L536.28,249.44L536.38,301.76L536.48,308.07L536.59,281.03L536.79,285.43L536.9,284.07L537.1,289.01L537.21,280.3L537.62,310.19L537.93,297.45L538.03,280.09L538.45,270.94L538.96,299.67L539.07,277.53L539.17,302.48L539.38,267.46L539.79,270.35L539.89,280.76L540.51,300.67L540.62,298.82L540.72,289.7L540.82,305.71L540.93,268.23L541.44,298.16L541.55,260.79L542.27,310.43L542.37,295.28L542.48,295.06L542.68,287.74L542.79,294.46L542.89,279.63L542.99,279.25L543.1,273.15L543.2,270.63L543.3,297.98L543.82,302.28L543.92,274.61L544.03,281.83L544.13,295.55L544.23,295.19L544.34,275.92L544.75,291.2L544.85,248.71L545.37,307.88L545.68,291.01L545.79,275.83L546.2,274.85L546.61,301.9L546.72,268.25L547.13,260.28L547.65,300.51L547.75,299.2L548.58,256.22L548.78,267.17L548.89,301.77L549.2,282.14L549.71,293.77L549.82,293.3L549.92,270.2L550.02,305.78L550.44,296L550.54,303.34L550.64,211.79L551.26,244.4L551.37,279.82L551.68,260.89L552.09,302.25L552.19,295.09L552.3,294.6L552.4,296.71L552.5,296.4L552.61,284.05L553.12,297.24L553.43,273.88L553.54,284.65L553.74,300.54L553.85,269.14L554.26,289.67L554.36,283.91L554.57,275.61L554.98,302.63L555.19,300.02L555.29,292.5L555.4,308.98L555.92,279.95L556.02,288.52L556.12,299.43L556.23,279.05L556.64,284.43L556.74,268.31L557.57,305.13L557.67,299.68L557.78,305.47L558.19,268.45L558.5,296.35L558.6,298.21L559.02,270.57L559.33,278.08L559.43,300.17L559.64,306.05L559.84,286.63L559.95,256.12L560.57,307.28L560.67,278.18L560.77,272.64L561.5,305.12L561.6,275.66L561.81,268.76L561.91,286.92L562.01,293.13L562.22,273.33L562.32,289.96L562.43,271.35L562.63,303.56L563.25,294.37L563.36,301.63L563.46,302.07L563.56,296.78L563.67,295.99L563.77,287.88L563.98,301.43L564.08,279.46L564.18,300L564.29,311.94L565.11,263.7L565.22,282.23L565.32,282.27L565.63,270.82L566.15,294.92L566.25,271.29L567.08,305.5L567.18,277.38L567.39,303.01L567.91,289.9L568.01,263.27L568.22,309.15L568.73,289.49L568.84,274.67L568.94,276.47L569.04,270.1L569.15,292.53L569.35,294.23L569.46,259.94L569.56,280.21L569.66,288.63L570.18,299.3L570.28,277.74L570.39,284.34L570.49,293.75L570.8,299.15L571.01,256.76L571.11,286.69L571.21,313.5L571.42,266L572.04,291.86L572.14,281.41L572.45,306.98L572.76,269.64L572.87,268.18L573.07,296.83L573.38,255.74L573.69,288.92L573.8,272.31L573.9,270.93L574,278.84L574.11,277.52L574.21,303.9L574.42,257.9L574.93,307.57L575.04,305.01L575.35,284.83L575.56,308.01L575.87,294.63L575.97,307.78L576.69,279.49L576.8,294.52L576.9,255.5L577.52,300.67L577.62,282.25L577.83,301.62L578.14,294.65L578.24,286.5L578.35,306.33L578.45,273.72L578.97,292.51L579.07,284.84L579.28,313.4L579.48,293.9L579.59,281.34L579.79,277.09L580,297.32"/></g><g class="points"/><g class="text"/></g></g></g><g class="overplot"/><path class="xlines-above crisp" style="fill: none;" d="M0,0"/><path class="ylines-above crisp" style="fill: none;" d="M0,0"/><g class="overlines-above"/><g class="xaxislayer-above"><g class="xtick"><text text-anchor="middle" x="0" y="403" style="font-family: TOBESTRIPPEDOpen SansTOBESTRIPPED, verdana, arial, sans-serif; font-size: 12px; fill: rgb(68, 68, 68); fill-opacity: 1; white-space: pre;" transform="translate(60,0)">0</text></g><g class="xtick"><text text-anchor="middle" x="0" y="403" style="font-family: TOBESTRIPPEDOpen SansTOBESTRIPPED, verdana, arial, sans-serif; font-size: 12px; fill: rgb(68, 68, 68); fill-opacity: 1; white-space: pre;" transform="translate(163.37,0)">1000</text></g><g class="xtick"><text text-anchor="middle" x="0" y="403" style="font-family: TOBESTRIPPEDOpen SansTOBESTRIPPED, verdana, arial, sans-serif; font-size: 12px; fill: rgb(68, 68, 68); fill-opacity: 1; white-space: pre;" transform="translate(266.74,0)">2000</text></g><g class="xtick"><text text-anchor="middle" x="0" y="403" style="font-family: TOBESTRIPPEDOpen SansTOBESTRIPPED, verdana, arial, sans-serif; font-size: 12px; fill: rgb(68, 68, 68); fill-opacity: 1; white-space: pre;" transform="translate(370.11,0)">3000</text></g><g class="xtick"><text text-anchor="middle" x="0" y="403" style="font-family: TOBESTRIPPEDOpen SansTOBESTRIPPED, verdana, arial, sans-serif; font-size: 12px; fill: rgb(68, 68, 68); fill-opacity: 1; white-space: pre;" transform="translate(473.47,0)">4000</text></g><g class="xtick"><text text-anchor="middle" x="0" y="403" style="font-family: TOBESTRIPPEDOpen SansTOBESTRIPPED, verdana, arial, sans-serif; font-size: 12px; fill: rgb(68, 68, 68); fill-opacity: 1; white-space: pre;" transform="translate(576.84,0)">5000</text></g></g><g class="yaxislayer-above"><g class="ytick"><text text-anchor="end" x="59" y="4.199999999999999" style="font-family: TOBESTRIPPEDOpen SansTOBESTRIPPED, verdana, arial, sans-serif; font-size: 12px; fill: rgb(68, 68, 68); fill-opacity: 1; white-space: pre;" transform="translate(0,322.69)">200</text></g><g class="ytick"><text text-anchor="end" x="59" y="4.199999999999999" style="font-family: TOBESTRIPPEDOpen SansTOBESTRIPPED, verdana, arial, sans-serif; font-size: 12px; fill: rgb(68, 68, 68); fill-opacity: 1; white-space: pre;" transform="translate(0,254.05)">400</text></g><g class="ytick"><text text-anchor="end" x="59" y="4.199999999999999" style="font-family: TOBESTRIPPEDOpen SansTOBESTRIPPED, verdana, arial, sans-serif; font-size: 12px; fill: rgb(68, 68, 68); fill-opacity: 1; white-space: pre;" transform="translate(0,185.4)">600</text></g><g class="ytick"><text text-anchor="end" x="59" y="4.199999999999999" style="font-family: TOBESTRIPPEDOpen SansTOBESTRIPPED, verdana, arial, sans-serif; font-size: 12px; fill: rgb(68, 68, 68); fill-opacity: 1; white-space: pre;" transform="translate(0,116.75)">800</text></g></g><g class="overaxes-above"/></g></g><g class="polarlayer"/><g class="ternarylayer"/><g class="geolayer"/><g class="pielayer"/><g class="glimages"/><defs id="topdefs-16f927"><g class="clips"/></defs><g class="layer-above"><g class="imagelayer"/><g class="shapelayer"/></g><g class="infolayer"><g class="g-gtitle"><text class="gtitle" style="font-family: TOBESTRIPPEDOpen SansTOBESTRIPPED, verdana, arial, sans-serif; font-size: 17px; fill: rgb(68, 68, 68); opacity: 1; font-weight: normal; white-space: pre;" x="350" y="30" text-anchor="middle" dy="0em">loss</text></g><g class="g-xtitle"/><g class="g-ytitle"/></g></svg>